<svg xmlns="http://www.w3.org/2000/svg" width="923.346" height="2863.592" viewBox="0 0 923.346 2863.592">
  <g id="lines" transform="translate(-134.993 617.478)">
    <path id="line" d="M1114.656,3244.788s147.911,155.29,91.527,359.386S803,3781.648,803,3781.648" transform="translate(-325.333 -1538.211)" fill="none" stroke="#ef233c" stroke-linecap="round" stroke-width="3" stroke-dasharray="10"/>
    <path id="line-2" data-name="line" d="M613,2464.607s-208,126-136,318,345.394,337.828,694,340" transform="translate(-325.333 -1516.031)" fill="none" stroke="#ef233c" stroke-linecap="round" stroke-width="3" stroke-dasharray="10"/>
    <path id="line-3" data-name="line" d="M404.651,1322C417,1614,1035.308,1448,1165,1560s68.214,339-126.363,490c-1.946,1.51-3.911,3-6.038,4.576C841.933,2195.884,605,2070,560.349,2200.275c-2.493,3.605-4.971,7.549-7.349,11.725" transform="translate(-259.333 -1237.424)" fill="none" stroke="#ef233c" stroke-linecap="round" stroke-linejoin="round" stroke-width="3" stroke-dasharray="10"/>
    <path id="Tracé_409" data-name="Tracé 409" d="M347.05,1385.293c156-104,672-20,664-160s114.619-348,114.619-348" transform="translate(-69.383 -1492.717)" fill="none" stroke="#ef233c" stroke-linecap="round" stroke-width="3" stroke-dasharray="10"/>
  </g>
</svg>
