<?xml version="1.0" standalone="no"?>
<!DOCTYPE svg PUBLIC "-//W3C//DTD SVG 20010904//EN"
 "http://www.w3.org/TR/2001/REC-SVG-20010904/DTD/svg10.dtd">
<svg version="1.0" xmlns="http://www.w3.org/2000/svg"
 width="3124.000000pt" height="825.000000pt" viewBox="0 0 3124.000000 825.000000"
 preserveAspectRatio="xMidYMid meet">

<g transform="translate(0.000000,825.000000) scale(0.100000,-0.100000)"
fill="#000000" stroke="none">
<path d="M11740 5580 c-238 -23 -440 -153 -535 -345 -68 -138 -66 -108 -63
-1088 l3 -882 28 -75 c74 -203 232 -343 452 -401 73 -20 113 -22 477 -26 433
-6 537 1 656 41 111 38 170 74 253 156 57 56 85 94 112 150 75 154 72 104 72
1065 0 961 3 911 -72 1065 -52 108 -159 213 -273 268 -141 70 -172 73 -625 77
-220 2 -438 0 -485 -5z m943 -293 c88 -44 135 -92 181 -187 l31 -65 0 -860 0
-860 -32 -67 c-40 -85 -101 -146 -189 -189 l-69 -34 -405 -3 c-436 -4 -477 0
-563 46 -67 36 -150 129 -179 199 l-23 58 0 850 0 850 23 57 c25 63 102 154
158 189 20 12 61 30 92 40 52 17 93 18 478 16 l420 -2 77 -38z"/>
<path d="M26520 5579 c-289 -26 -514 -207 -580 -464 -19 -75 -20 -111 -20
-934 0 -952 -1 -932 67 -1070 76 -155 225 -270 418 -323 77 -21 97 -22 540
-22 443 0 463 1 540 22 246 67 409 227 472 462 17 60 18 135 18 925 0 962 3
913 -72 1065 -99 197 -293 317 -546 340 -129 11 -711 11 -837 -1z m923 -281
c80 -38 161 -117 200 -197 l32 -66 0 -860 0 -860 -31 -65 c-39 -83 -106 -150
-192 -192 l-67 -33 -440 0 -440 0 -67 33 c-84 41 -167 128 -200 209 l-23 58 0
850 0 850 23 57 c27 68 105 157 169 194 86 51 106 53 558 51 l420 -2 58 -27z"/>
<path d="M9455 5543 c-290 -36 -500 -210 -572 -473 -17 -60 -18 -131 -18 -895
0 -775 1 -834 18 -895 55 -195 194 -350 377 -422 130 -52 149 -53 810 -53
l615 0 0 125 0 125 -615 5 -615 5 -65 31 c-82 39 -124 75 -166 139 -67 105
-65 75 -62 966 l3 804 29 60 c17 33 53 83 80 111 28 27 78 63 111 80 l60 29
580 3 580 3 43 42 43 42 -3 85 -3 85 -600 1 c-330 1 -613 -1 -630 -3z"/>
<path d="M13902 4178 l3 -1373 145 0 145 0 3 825 c3 772 2 844 -19 1123 -19
261 -20 323 -5 306 2 -2 252 -425 556 -939 304 -514 605 -1022 667 -1127 l115
-193 154 0 154 0 0 1375 0 1375 -145 0 -145 0 1 -902 c0 -781 3 -933 18 -1128
10 -124 17 -227 15 -229 -10 -11 11 -45 -952 1586 l-397 673 -158 0 -157 0 2
-1372z"/>
<path d="M16254 5537 c-2 -7 -3 -65 -2 -128 l3 -114 433 -3 432 -2 0 -1245 0
-1246 143 3 142 3 3 1243 2 1242 393 0 393 0 37 38 37 38 0 92 0 92 -1005 0
c-820 0 -1007 -2 -1011 -13z"/>
<path d="M19322 5523 c-5 -16 -220 -602 -478 -1303 -449 -1223 -468 -1278
-469 -1345 l0 -70 144 0 144 0 117 350 117 350 599 3 599 2 118 -355 119 -355
144 0 144 0 0 68 c0 64 -24 132 -478 1372 l-477 1305 -166 3 -167 2 -10 -27z
m216 -420 c70 -198 452 -1317 452 -1325 0 -4 -223 -8 -496 -8 -294 0 -494 4
-492 9 2 5 111 325 243 710 132 385 245 701 251 701 6 0 25 -39 42 -87z"/>
<path d="M20720 5493 c0 -56 11 -78 458 -943 l457 -885 5 -430 5 -430 145 0
145 0 5 430 5 430 458 883 c452 874 457 884 457 943 l0 59 -147 0 -148 0 -381
-793 c-209 -435 -386 -792 -393 -792 -7 0 -184 357 -394 793 l-381 792 -148 0
-148 0 0 -57z"/>
<path d="M23292 4178 l3 -1373 143 -3 142 -3 0 898 c0 751 -2 935 -17 1125
-14 198 -14 255 1 237 1 -2 238 -402 526 -889 287 -487 588 -994 667 -1127
l144 -243 154 0 155 0 0 1375 0 1375 -145 0 -145 0 1 -907 c0 -766 3 -942 17
-1126 10 -120 15 -220 11 -223 -4 -2 -11 2 -17 9 -5 6 -296 498 -647 1092
-351 594 -649 1097 -662 1118 l-23 37 -155 0 -155 0 2 -1372z"/>
<path d="M28682 4178 l3 -1373 143 -3 142 -3 0 541 0 540 396 -2 397 -3 276
-490 c152 -270 289 -512 304 -538 l28 -47 144 0 145 0 0 62 0 61 -301 484
c-166 267 -297 488 -293 492 5 4 36 15 69 25 155 46 305 164 373 293 63 119
72 183 72 487 0 312 -8 365 -70 495 -74 154 -222 272 -407 323 -76 22 -96 22
-751 26 l-672 3 2 -1373z m1380 1074 c84 -41 165 -126 198 -208 22 -55 24 -74
28 -300 3 -200 1 -253 -12 -305 -32 -122 -108 -215 -224 -271 -47 -23 -50 -23
-564 -26 l-518 -3 0 576 0 576 513 -3 512 -3 67 -33z"/>
</g>
</svg>
