<svg xmlns="http://www.w3.org/2000/svg" viewBox="0 0 1562.26 2650.77"><defs><style>.cls-1{fill:none;stroke:#ff31ff;stroke-miterlimit:10;stroke-dasharray:20;}</style></defs><g id="Calque_2" data-name="Calque 2"><g id="Calque_1-2" data-name="Calque 1"><path id="star-path" class="cls-1" d="M321.27.51c80.3-.9,150.9,54.2,199.8,113.3,57.4,69.5,79.3,152.6,110.8,235.3,50.1,131.6,162.9,207.5,300.2,224.5,91.8,11.3,184.4-1.9,276.3,7.1,87.2,8.5,179.8,41.8,244.4,102.8,44.1,41.8,82.24,86,95.74,144.74,37.6,163.5-3.3,230-142,332-220.4,161.9-929-62-1211,23-72.32,19.34-93.52,17.19-182,168-29,132-5.34,181,30,232,90,130,399,184,474,203,247.34,62.66,361,67,507,96,87.88,22,99.08,22.74,120.62,28.48A1240.86,1240.86,0,0,1,1318,1970.3c27,11.67,55.66,16.21,85.51,37,109.72,65.56,160.26,107,140,260-41.85,160.37-71.93,208.53-169.34,242.56-105,45.7-1205.36,141.94-1318.66,140.44"/></g></g></svg>