<?xml version="1.0" encoding="utf-8"?>
<!-- Generator: Adobe Illustrator 25.2.3, SVG Export Plug-In . SVG Version: 6.00 Build 0)  -->
<svg version="1.1" id="Calque_1" xmlns="http://www.w3.org/2000/svg" xmlns:xlink="http://www.w3.org/1999/xlink" x="0px" y="0px"
	 viewBox="0 0 1250 2664.9" style="enable-background:new 0 0 1250 2664.9;" xml:space="preserve">
<style type="text/css">
	.st0{fill:none;stroke:#EF233C;stroke-width:10;stroke-miterlimit:30;stroke-dasharray:40;}
</style>
<path id="star-path" class="st0" d="M0,50.5c80.3-0.9,150.9,54.2,199.8,113.3c57.4,69.5,79.3,152.6,110.8,235.3
	c50.1,131.6,162.9,207.5,300.2,224.5c91.8,11.3,184.4-1.9,276.3,7.1c87.2,8.5,179.8,41.8,244.4,102.8
	c44.1,41.8,82.2,92.5,79.3,152.7c-9.4,194.7-32.7,210.1-185.8,260.3c-218.1,71.4-640.5-137.2-968,13.5c-55.6,26.4-111.4,57.7-149,98
	c-67.8,72.7-54.2,91.3-27,174c29.8,90.7,85.9,317.8,165.1,375c218.4,157.9,301,15.1,507.3,15.7c282.9,0.7,322.9,39,365.2,47.6
	c74.9,15.3,229.9,106.4,259.8,156.5c51.9,86.9,37.8,207,28,291.9c-14.9,128.9-59.7,200.2-153.4,241
	C924.2,2606.9-638,2680.3-595,2678"/>
</svg>
