<?xml version="1.0" encoding="utf-8"?>
<!-- Generator: Adobe Illustrator 25.2.3, SVG Export Plug-In . SVG Version: 6.00 Build 0)  -->
<svg version="1.1" id="Calque_1" xmlns="http://www.w3.org/2000/svg" xmlns:xlink="http://www.w3.org/1999/xlink" x="0px" y="0px"
	 viewBox="0 0 1366 2996" style="enable-background:new 0 0 1366 2996;" xml:space="preserve">
<style type="text/css">
	.st0{fill:#FFFFFF;}
	.st1{fill:none;stroke:#FF0000;stroke-width:4;stroke-miterlimit:10;stroke-dasharray:40;}
</style>
<g>
	<path class="st0" d="M20.5,40.5c380.1-43.4,558.8,42.5,651,138c58.6,60.7,101.9,145.7,206,169c113.9,25.5,178.1-50.3,290-4
		c16.2,6.7,98.9,40.9,123,125c11.9,41.4,12.5,105.4-24,145c-52.6,57-151.8,30.6-271,19C817.8,615.2,1110.5,797.6,834,800
		c-217.4,1.9-159.2,17.8-237,79c-61,48-176.3,83.8-183,103c-8.7,24.8-160.5,1.2-111,72c32.5,46.6-432,125.6-392,134
		c289.5,61.1-437.5,857.5,19,385c57.1-59.1,1142.2-442.4,1221.5-400.5c17.3,9.2,83.5,45.4,109,123c17.3,52.6,12.5,113.7-11,157
		c-50.7,93.5-171.9,73.2-450,132c-196.1,41.5-206,66.4-472,123c-97.6,20.8,864.7,573.5,849.3,601.5c-0.2,0.5-1,0.2-1.8,1
		c-10.6,10,61.5,74.3,54,122c-7,44.4-81.9,67.2-105,74c-201.3,59-923,461.8-1038,466"/>
	<path class="st1" d="M20.5,40.5c380.1-43.4,558.8,42.5,651,138c58.6,60.7,101.9,145.7,206,169c113.9,25.5,178.1-50.3,290-4
		c16.2,6.7,98.9,40.9,123,125c11.9,41.4,12.5,105.4-24,145c-52.6,57-151.8,30.6-271,19C817.8,615.2,1110.5,797.6,834,800
		c-217.4,1.9-159.2,17.8-237,79c-61,48-176.3,83.8-183,103c-8.7,24.8-160.5,1.2-111,72c32.5,46.6-432,125.6-392,134
		c289.5,61.1-437.5,857.5,19,385c57.1-59.1,1142.2-442.4,1221.5-400.5c17.3,9.2,83.5,45.4,109,123c17.3,52.6,12.5,113.7-11,157
		c-50.7,93.5-171.9,73.2-450,132c-196.1,41.5-206,66.4-472,123c-97.6,20.8,864.7,573.5,849.3,601.5c-0.2,0.5-1,0.2-1.8,1
		c-10.6,10,61.5,74.3,54,122c-7,44.4-81.9,67.2-105,74c-201.3,59-923,461.8-1038,466"/>
	<path class="st1" d="M20.5,40.5c380.1-43.4,558.8,42.5,651,138c58.6,60.7,101.9,145.7,206,169c113.9,25.5,178.1-50.3,290-4
		c16.2,6.7,98.9,40.9,123,125c11.9,41.4,12.5,105.4-24,145c-52.6,57-151.8,30.6-271,19C817.8,615.2,1110.5,797.6,834,800
		c-217.4,1.9-159.2,17.8-237,79c-61,48-176.3,83.8-183,103c-8.7,24.8-160.5,1.2-111,72c32.5,46.6-432,125.6-392,134
		c289.5,61.1-437.5,857.5,19,385c57.1-59.1,1142.2-442.4,1221.5-400.5c17.3,9.2,83.5,45.4,109,123c17.3,52.6,12.5,113.7-11,157
		c-50.7,93.5-171.9,73.2-450,132c-196.1,41.5-206,66.4-472,123c-97.6,20.8,864.7,573.5,849.3,601.5c-0.2,0.5-1,0.2-1.8,1
		c-10.6,10,61.5,74.3,54,122c-7,44.4-81.9,67.2-105,74c-201.3,59-923,461.8-1038,466"/>
</g>
</svg>
