<?xml version="1.0" encoding="utf-8"?>
<!-- Generator: Adobe Illustrator 25.2.3, SVG Export Plug-In . SVG Version: 6.00 Build 0)  -->
<svg version="1.1" id="Calque_1" xmlns="http://www.w3.org/2000/svg" xmlns:xlink="http://www.w3.org/1999/xlink" x="0px" y="0px"
	 viewBox="0 0 1781.1 2664.9" style="enable-background:new 0 0 1781.1 2664.9;" xml:space="preserve">
<style type="text/css">
	.st0{fill:none;stroke:#EF233C;stroke-width:10;stroke-miterlimit:30;stroke-dasharray:40;}
</style>
<path id="star-path" class="st0" d="M311.5,50.5c80.3-0.9,150.9,54.2,199.8,113.3c57.4,69.5,79.3,152.6,110.8,235.3
	C672.2,530.7,785,606.6,922.3,623.6c91.8,11.3,184.4-1.9,276.3,7.1c87.2,8.5,179.8,41.8,244.4,102.8c44.1,41.8,82.2,92.5,79.3,152.7
	c-9.4,194.7-32.7,210.1-185.8,260.3c-218.1,71.4-617.6-318.8-985.1-104.5c-308,179.5-259.4,493.3-124.3,567.6
	c245.1,134.7,442.6,118.9,645.9,154.1c262.4,45.4,246.5,50.4,359.5,100c110.8,48.6,191.6,148.7,210.5,163.6
	c79.5,62.6,84.7,206.7,74.9,291.6c-14.9,128.9-59.7,200.2-153.4,241c-105,45.7-1653.5,118.8-1639,118.1"/>
</svg>
