<svg version="1.1"
	 xmlns="http://www.w3.org/2000/svg" xmlns:xlink="http://www.w3.org/1999/xlink" xmlns:a="http://ns.adobe.com/AdobeSVGViewerExtensions/3.0/"
	 x="0px" y="0px" width="1250px" height="2664.9px" viewBox="0 0 1250 2564.9" style="enable-background:new 0 0 1223 2564.9;"
	 xml:space="preserve">
<style type="text/css">
	.st0{fill:none;stroke:#ef233c;stroke-width:10;stroke-miterlimit:30;stroke-dasharray:40;}
</style>
<defs>
</defs>
<path class="st0" id="star-path" d="M0,0.5c80.3-0.9,150.9,54.2,199.8,113.3c57.4,69.5,79.3,152.6,110.8,235.3c50.1,131.6,162.9,207.5,300.2,224.5
	c91.8,11.3,184.4-1.9,276.3,7.1c87.2,8.5,179.8,41.8,244.4,102.8c44.1,41.8,65.8,94,79.3,152.7c37.6,163.5-12.6,354-151.3,456
	c-220.4,161.9-521.7,4.5-740.7,168.6c-50.9,38.1-94.1,89.4-113.6,150.7c-54.3,171.1,3.4,380.2,162.7,472.6
	c118.3,68.4,257.8,76.3,391.3,75.9c69-0.1,138-2.6,206.9-0.2c90.2,3,196.6,17.2,240.2,109c55.5,117.3-59.7,200.2-153.4,241
	c-105,45.7-223,56.9-336.3,55.4"/>
</svg>
