<svg xmlns="http://www.w3.org/2000/svg" xmlns:xlink="http://www.w3.org/1999/xlink" width="540.414" height="503" viewBox="0 0 540.414 503">
  <defs>
    <filter id="Tracé_493" x="0" y="0" width="503" height="503" filterUnits="userSpaceOnUse">
      <feOffset dy="3" input="SourceAlpha"/>
      <feGaussianBlur stdDeviation="3" result="blur"/>
      <feFlood flood-opacity="0.161"/>
      <feComposite operator="in" in2="blur"/>
      <feComposite in="SourceGraphic"/>
    </filter>
    <linearGradient id="linear-gradient" y1="0.499" x2="1" y2="0.499" gradientUnits="objectBoundingBox">
      <stop offset="0" stop-opacity="0"/>
      <stop offset="0.99"/>
    </linearGradient>
    <linearGradient id="linear-gradient-2" x1="0" y1="0.5" x2="1" y2="0.5" xlink:href="#linear-gradient"/>
    <linearGradient id="linear-gradient-3" x1="0.784" y1="-0.503" x2="-0.429" y2="2.976" xlink:href="#linear-gradient"/>
    <linearGradient id="linear-gradient-4" x1="0.2" y1="-0.037" x2="0.684" y2="0.702" xlink:href="#linear-gradient"/>
    <linearGradient id="linear-gradient-5" x1="0.118" y1="-0.021" x2="1.184" y2="0.931" xlink:href="#linear-gradient"/>
    <linearGradient id="linear-gradient-6" x1="0.446" y1="0.185" x2="1.12" y2="0.88" xlink:href="#linear-gradient"/>
    <linearGradient id="linear-gradient-7" x1="0" y1="0.5" x2="1" y2="0.5" xlink:href="#linear-gradient"/>
    <linearGradient id="linear-gradient-8" x1="1.943" y1="0.409" x2="-3.702" y2="0.745" xlink:href="#linear-gradient"/>
    <linearGradient id="linear-gradient-9" x1="0.001" y1="0.5" x2="1" y2="0.5" gradientUnits="objectBoundingBox">
      <stop offset="0" stop-color="#e5c5d5"/>
      <stop offset="0.42" stop-color="#ead4d1"/>
      <stop offset="1" stop-color="#f0e9cb"/>
    </linearGradient>
    <linearGradient id="linear-gradient-10" x1="0.001" y1="0.5" x2="1" y2="0.5" xlink:href="#linear-gradient-9"/>
    <linearGradient id="linear-gradient-11" x1="0.54" y1="-0.023" x2="0.472" y2="0.945" xlink:href="#linear-gradient"/>
    <linearGradient id="linear-gradient-12" x1="0" y1="0.5" x2="1" y2="0.5" xlink:href="#linear-gradient-9"/>
    <linearGradient id="linear-gradient-13" x1="-100.963" y1="-64.97" x2="-99.98" y2="-64.97" xlink:href="#linear-gradient-9"/>
    <linearGradient id="linear-gradient-14" x1="0.515" y1="-0.043" x2="0.436" y2="1.422" xlink:href="#linear-gradient"/>
    <linearGradient id="linear-gradient-15" x1="0.375" y1="0.302" x2="0.724" y2="0.964" xlink:href="#linear-gradient"/>
    <linearGradient id="linear-gradient-16" x1="0" y1="0.499" x2="1.002" y2="0.499" xlink:href="#linear-gradient-9"/>
    <linearGradient id="linear-gradient-17" x1="1.364" y1="0.465" x2="-0.032" y2="0.524" gradientUnits="objectBoundingBox">
      <stop offset="0.02" stop-color="#fff" stop-opacity="0"/>
      <stop offset="0.58" stop-color="#fff" stop-opacity="0.388"/>
      <stop offset="0.68" stop-color="#fff" stop-opacity="0.678"/>
      <stop offset="1" stop-color="#fff"/>
    </linearGradient>
    <linearGradient id="linear-gradient-18" x1="2.451" y1="-0.279" x2="-0.565" y2="0.919" xlink:href="#linear-gradient-17"/>
    <linearGradient id="linear-gradient-19" x1="0.622" y1="-0.227" x2="0.096" y2="2.834" xlink:href="#linear-gradient-17"/>
    <linearGradient id="linear-gradient-20" x1="0.49" y1="0.371" x2="0.566" y2="1.146" xlink:href="#linear-gradient"/>
  </defs>
  <g id="illu" transform="translate(-49.589 -9.488)">
    <g transform="matrix(1, 0, 0, 1, 49.59, 9.49)" filter="url(#Tracé_493)">
      <path id="Tracé_493-2" data-name="Tracé 493" d="M242.5,0C376.429,0,485,108.571,485,242.5S376.429,485,242.5,485,0,376.429,0,242.5A242.5,242.5,0,0,1,242.5,0Z" transform="translate(9 6)" fill="#de0c0c" opacity="0.18"/>
    </g>
    <path id="Tracé_411" data-name="Tracé 411" d="M221.59,201.94s-61.7-15.132-103.039,19.2,5.83,19.8,20.92,24.463S177.309,259,177.309,259,240.223,229.276,221.59,201.94Z" transform="translate(13.131 65.254)" fill="#3e3e54"/>
    <path id="Tracé_412" data-name="Tracé 412" d="M221.59,201.94s-61.7-15.132-103.039,19.2,5.83,19.8,20.92,24.463S177.309,259,177.309,259,240.223,229.276,221.59,201.94Z" transform="translate(13.131 65.254)" fill="url(#linear-gradient)"/>
    <path id="Tracé_413" data-name="Tracé 413" d="M173.532,276.706S212.346,251.1,236.4,258.854l20.181,6.206s-12.413,78.409-81.505,85.4c0,0-14.742,1.548,1.562-25.62S173.532,276.706,173.532,276.706Z" transform="translate(39.572 88.45)" fill="#3e3e54"/>
    <path id="Tracé_414" data-name="Tracé 414" d="M173.532,276.706S212.346,251.1,236.4,258.854l20.181,6.206s-12.413,78.409-81.505,85.4c0,0-14.742,1.548,1.562-25.62S173.532,276.706,173.532,276.706Z" transform="translate(39.572 88.45)" fill="url(#linear-gradient-2)"/>
    <path id="Tracé_415" data-name="Tracé 415" d="M258.027,90.781a30.849,30.849,0,0,0,8.856,3.1c4.561.6,9.093-.851,13.515-2.092a158.407,158.407,0,0,1,15.634-3.529c2.9-.488,6.29-.753,8.368,1.395s1.66,5.858-.153,8.243-4.616,3.752-7.322,5.049l-15.871,7.573a49.969,49.969,0,0,1-8.48,3.431c-12.092,3.264-24.644-2.789-35.174-9.526-4.059-2.622-8.452-6.081-8.619-10.906a15.942,15.942,0,0,1,1.172-5.579,12.678,12.678,0,0,1,3.319-5.816C238.069,77.978,253.187,88.508,258.027,90.781Z" transform="translate(63.179 18.897)" fill="#de0c0c"/>
    <path id="Tracé_416" data-name="Tracé 416" d="M257.771,90.894a30.85,30.85,0,0,0,8.856,3.1c4.561.6,9.093-.851,13.514-2.092a154.493,154.493,0,0,1,15.69-3.515c2.887-.5,6.29-.767,8.368,1.395s1.66,5.844-.153,8.229-4.616,3.752-7.322,5.049l-15.872,7.573a49.969,49.969,0,0,1-8.48,3.431c-12.092,3.264-24.644-2.789-35.174-9.526-4.059-2.608-8.452-6.081-8.619-10.906a15.5,15.5,0,0,1,1.172-5.579,12.719,12.719,0,0,1,3.208-5.774C237.813,78.091,252.875,88.635,257.771,90.894Z" transform="translate(63.1 18.951)" fill="url(#linear-gradient-3)"/>
    <path id="Tracé_417" data-name="Tracé 417" d="M286.96,130.4c-4.5,6.973-10.293,13.124-16.039,19.163s-11.492,11.98-19.135,14.812c-3.766,1.395-8.229,1.869-11.66-.251-3.724-2.287-5.258-7.183-4.561-11.506a23.165,23.165,0,0,1,6.178-11.395,61.98,61.98,0,0,1,7.894-8.1c3.152-2.4,6.5-2.273,10.614-2.566a200.842,200.842,0,0,1,26.708-.153Z" transform="translate(65.793 38.181)" fill="#3e3e54"/>
    <path id="Tracé_418" data-name="Tracé 418" d="M286.96,130.4c-4.5,6.973-10.293,13.124-16.039,19.163s-11.492,11.98-19.135,14.812c-3.766,1.395-8.229,1.869-11.66-.251-3.724-2.287-5.258-7.183-4.561-11.506a23.165,23.165,0,0,1,6.178-11.395,61.98,61.98,0,0,1,7.894-8.1c3.152-2.4,6.5-2.273,10.614-2.566a200.842,200.842,0,0,1,26.708-.153Z" transform="translate(65.793 38.181)" fill="url(#linear-gradient-4)"/>
    <path id="Tracé_419" data-name="Tracé 419" d="M557.968,86.208a95.11,95.11,0,0,1-2.2,10,228.477,228.477,0,0,1-20.39,49.525C515.961,181.339,480.4,228.02,415.906,271.255c-101.254,68.144-190.123,79.5-222.912,81.212-8.675.488-13.431.307-13.431.307L149.87,306.749s33.472-49.832,93.89-102.091h0a549.975,549.975,0,0,1,90.25-63.821,513.227,513.227,0,0,1,59.637-28.7,401.29,401.29,0,0,1,87.391-24.728C529.587,79.848,557.968,86.208,557.968,86.208Z" transform="translate(32.034 19.9)" fill="#de0c0c"/>
    <path id="Tracé_420" data-name="Tracé 420" d="M293.585,152.879c-1.395,2.58,2.943,10.809,5.314,12.552s5.272,2.789,6.973,5.216a3.668,3.668,0,0,1,.739,3.054c-.446,1.562-2.232,2.259-3.78,2.789l-41.617,12.8a6.7,6.7,0,0,0-3.1,1.576c-1.674,1.785-.837,4.909,1.074,6.4A11.158,11.158,0,0,0,266.166,199c13.459,0,28.242-5.579,39.511,1.729a33.837,33.837,0,0,1,8.215,8.368,115.76,115.76,0,0,1,17.991,34.965c1.213,3.877,2.218,8.1.823,11.925a36.652,36.652,0,0,1-16.29-13.1c-5.049-7.364-7.643-16.82-14.993-21.869-5.37-3.7-12.315-4.184-18.814-3.64s-12.9,2.176-19.414,2.259c-14.5.181-27.894-6.973-40.669-13.947-2.664-1.395-5.69-3.473-5.746-6.513a5.049,5.049,0,0,1,.586-2.4h0a549.972,549.972,0,0,1,90.25-63.821,513.25,513.25,0,0,1,59.637-28.7C372.775,112.112,294.185,151.8,293.585,152.879Z" transform="translate(58.443 28.012)" fill="url(#linear-gradient-5)"/>
    <path id="Tracé_421" data-name="Tracé 421" d="M463.865,86.56s-3.445,24.407-22.594,59.525a183.282,183.282,0,0,1-18.131-6.75c-24.3-10.4-34.309-44.421-36.15-51.478C435.483,80.214,463.865,86.56,463.865,86.56Z" transform="translate(125.622 20.05)" fill="url(#linear-gradient-6)"/>
    <circle id="Ellipse_30" data-name="Ellipse 30" cx="23.152" cy="23.152" r="23.152" transform="translate(450.772 150.124)" fill="#3e3e54" opacity="0.31"/>
    <circle id="Ellipse_31" data-name="Ellipse 31" cx="23.152" cy="23.152" r="23.152" transform="translate(389.643 185.633)" fill="#3e3e54" opacity="0.31"/>
    <circle id="Ellipse_32" data-name="Ellipse 32" cx="23.152" cy="23.152" r="23.152" transform="translate(322.698 231.043)" fill="#3e3e54" opacity="0.31"/>
    <path id="Tracé_422" data-name="Tracé 422" d="M137.985,223.27,176.8,285.361l-20.962,7.768L124.01,239.574Z" transform="translate(48.968 88.121)" fill="#3e3e54"/>
    <path id="Tracé_423" data-name="Tracé 423" d="M244.014,192.837c18.34,4.435,37.475-.349,55.983-4.045a11.158,11.158,0,0,1,5.83-.084c2.19.767,3.654,2.789,4.937,4.728a161.334,161.334,0,0,1,15.885,30.948c2.51,6.541,4.867,13.654,10.446,17.894s15.537,3.291,17.559-3.417c-9.526-26.792-21.255-52.733-32.97-78.646-1.06-2.343-2.232-4.826-4.407-6.206a13.389,13.389,0,0,0-6.178-1.548l-66.052-5.7c-14.839-1.283-37.154-3.25-32.175,17.392C216.3,178.542,230.067,189.462,244.014,192.837Z" transform="translate(56.62 44.496)" fill="#3e3e54"/>
    <path id="Tracé_424" data-name="Tracé 424" d="M244.014,192.837c18.34,4.435,37.475-.349,55.983-4.045a11.158,11.158,0,0,1,5.83-.084c2.19.767,3.654,2.789,4.937,4.728a161.334,161.334,0,0,1,15.885,30.948c2.51,6.541,4.867,13.654,10.446,17.894s15.537,3.291,17.559-3.417c-9.526-26.792-21.255-52.733-32.97-78.646-1.06-2.343-2.232-4.826-4.407-6.206a13.389,13.389,0,0,0-6.178-1.548l-66.052-5.7c-14.839-1.283-37.154-3.25-32.175,17.392C216.3,178.542,230.067,189.462,244.014,192.837Z" transform="translate(56.62 44.496)" fill="url(#linear-gradient-7)"/>
    <path id="Tracé_425" data-name="Tracé 425" d="M264.164,163.8c0,4.5,0,9.163-2.022,13.208-2.58,5.3-8.145,8.633-13.947,9.986a37.825,37.825,0,0,1-5.579.823,90.9,90.9,0,0,1-12.008-.265c-7.657-.5-16.346-1.548-20.92-7.713-3.208-4.337-3.487-10.111-3.612-15.509-.335-14.756-.4-29.512-.516-44.267,0-8.438-3.417-19.818-2.218-27.894a18.633,18.633,0,0,1,11.673-15.09c11.311-4.84,27.74-1.283,35.76,7.936,6.43,7.364,8.912,17.336,10.418,27C263.941,129.076,264.15,146.482,264.164,163.8Z" transform="translate(53.038 16.432)" fill="#de0c0c"/>
    <path id="Tracé_426" data-name="Tracé 426" d="M238.989,135.071q1.088,16.736,1.172,33.472a59.7,59.7,0,0,0,.446,9.2c.377,2.329,1.869,4.477,2.134,6.681a9.162,9.162,0,0,1-.084,2.789,90.906,90.906,0,0,1-12.008-.265c-7.657-.5-16.346-1.548-20.92-7.713-3.208-4.337-3.487-10.111-3.612-15.509-.335-14.756-.4-29.512-.516-44.267,0-8.438-3.417-19.818-2.218-27.894a18.633,18.633,0,0,1,11.673-15.09A15.8,15.8,0,0,1,217.65,77.6c4.9,2.594,8.591,6.973,11.966,11.381a35.955,35.955,0,0,1,4.463,7.127,37.113,37.113,0,0,1,2.343,10.39c.865,7.322,1.562,14.672,2.134,22.036.307,3.933-.739,6.416,3.5,7.169a81.7,81.7,0,0,0,10.906,1.158c3.724.167,8.131-.265,10.1-3.431a7.224,7.224,0,0,0-.628-7.8,13.821,13.821,0,0,0-6.736-4.6c-2.594-.948-5.328-1.478-7.95-2.357a19.526,19.526,0,0,1-7.211-4.031,11.157,11.157,0,0,1-3.71-7.238" transform="translate(53.054 17.048)" fill="url(#linear-gradient-8)"/>
    <path id="Tracé_427" data-name="Tracé 427" d="M216.883,79.493a13.333,13.333,0,0,0,.167,4.017c.823,3.277,3.947,5.425,7.043,6.778,1.911.837,4.463,1.395,5.844-.209,1.074-1.241.809-3.11.474-4.728l-1.841-8.8a29.412,29.412,0,0,0-1.6-5.76c-.809-1.883-6.151-9.554-8.856-7.6-1.13.809-.655,6.332-.725,7.713Z" transform="translate(58.452 11.677)" fill="url(#linear-gradient-9)"/>
    <path id="Tracé_428" data-name="Tracé 428" d="M217.362,69.338a22.315,22.315,0,0,0,4.826,9.86,14.519,14.519,0,0,0,9.609,4.993,6.6,6.6,0,0,0,3.933-.767,9.01,9.01,0,0,0,3.082-4.533c3.166-7.685,6.374-16.136,3.975-24.114a9.763,9.763,0,0,0-4.323-5.983,10.753,10.753,0,0,0-7.336-.4c-4.184.948-10.46,3.124-13.166,6.694S216.442,65.419,217.362,69.338Z" transform="translate(58.251 5.779)" fill="url(#linear-gradient-10)"/>
    <path id="Tracé_429" data-name="Tracé 429" d="M241.258,38.924a19.093,19.093,0,0,0-19.037,1.967c-3.515,2.636-6.025,6.429-9.609,8.954-3.375,2.385-7.462,3.473-11.241,5.146-.46.2-.976.488-1.06.976-.139.753.739,1.241,1.088,1.925.53,1.046-.321,2.245-1.116,3.124l-4.547,4.965a3.291,3.291,0,0,0-1.074,1.869c-.153,1.911,2.552,2.455,4.463,2.287l6.3-.558a35.815,35.815,0,0,0-9.456,9.33c1.395,1.478,3.975.781,5.69-.349s3.347-2.789,5.383-2.678c-3.054,4.923,6.513,4.728,9.372,4.658a17.866,17.866,0,0,0,6.973-1.9,8.27,8.27,0,0,0,2.789-1.8,3.4,3.4,0,0,0,.976-3.054,8.76,8.76,0,0,0-.6-1.395,6.527,6.527,0,0,1,.084-5.579c.139-.265.321-.558.628-.6a1,1,0,0,1,.683.237l2.106,1.395a10.739,10.739,0,0,1,10.209-11.157c4.351-.237,12.315,1.911,11.269-5.188C250.7,46.177,246.014,41.086,241.258,38.924Z" transform="translate(49.711 1.564)" fill="#3e3e54"/>
    <path id="Tracé_430" data-name="Tracé 430" d="M248.24,56.631a4.686,4.686,0,0,0-.1-8.563,12.092,12.092,0,0,0-6.555-1.395,25.1,25.1,0,0,0-11.074,2.3c-4.742,2.371-8.173,6.736-12.552,9.763A39.511,39.511,0,0,1,205.9,63.772a12.873,12.873,0,0,0-5.439,2.287c-.251.237-.5.558-.391.879a1.032,1.032,0,0,0,.335.363,4.491,4.491,0,0,0,3.71.628c.725-.2,1.395-.586,2.064-.837a13.319,13.319,0,0,1,6.374,0,20.613,20.613,0,0,0,8.856-.237,39.133,39.133,0,0,0,6.973-3.487,5.844,5.844,0,0,1,2.789-.586,11.284,11.284,0,0,0-1.074,5.007l-2.106-1.395a1,1,0,0,0-.767-.2c-.293,0-.488.335-.628.6a6.583,6.583,0,0,0-.084,5.579,7.589,7.589,0,0,1,.586,1.395,3.319,3.319,0,0,1-.948,3.054,9.052,9.052,0,0,1-2.789,1.813,18.131,18.131,0,0,1-6.973,1.883c-2.789,0-12.4.265-9.358-4.658-2.036,0-3.766,1.632-5.383,2.678s-4.184,1.813-5.69.349a35.607,35.607,0,0,1,9.456-9.33l-6.3.558c-1.925.167-4.616-.377-4.463-2.287a3.347,3.347,0,0,1,1.06-1.869L200.262,61c.795-.879,1.646-2.078,1.116-3.124-.349-.683-1.227-1.185-1.088-1.925.084-.5.6-.781,1.06-.99,3.766-1.66,7.866-2.789,11.241-5.118,3.6-2.524,6.109-6.346,9.609-8.954a19.037,19.037,0,0,1,19.037-1.98c4.742,2.218,9.442,7.252,10.223,12.552C251.977,54.9,250.457,56.185,248.24,56.631Z" transform="translate(49.703 1.555)" fill="url(#linear-gradient-11)"/>
    <path id="Tracé_431" data-name="Tracé 431" d="M293.192,81.694c3.947-.907,8.549,0,11.046,3.208a2.273,2.273,0,0,1,.558,1.283.809.809,0,0,1-.739.907h-2.915a30.265,30.265,0,0,0-5.467,4.3,18.828,18.828,0,0,1-8.3,3.891c-4.045.795-9.065-1.953-5.927-6.346C283.9,85.488,289.147,82.629,293.192,81.694Z" transform="translate(83.578 18.974)" fill="url(#linear-gradient-12)"/>
    <path id="Tracé_432" data-name="Tracé 432" d="M290.826,108.615a4.6,4.6,0,0,1,2.524,3.277,1.283,1.283,0,0,1-.126.683c-.377.642-1.311.488-2.05.363-4.812-.865-9.386,2.887-14.282,2.789a8.647,8.647,0,0,1-5.941-2.58c-1.395-1.492-2.789-4.31-2.008-6.4.823-2.4,3.612-2.441,5.788-2.51A27.977,27.977,0,0,1,290.826,108.615Z" transform="translate(78.942 27.995)" fill="url(#linear-gradient-13)"/>
    <path id="Tracé_433" data-name="Tracé 433" d="M307.4,74.109l18.968-14.351s4.658-1.562,6.22.391-.2,61.45-.2,61.45l-23.486,11.06Z" transform="translate(94.209 10.214)" fill="#de0c0c"/>
    <path id="Tracé_434" data-name="Tracé 434" d="M307.6,74.229l19.01-14.351s4.658-1.562,6.22.391-.474,61.366-.474,61.366l-23.208,11.157Z" transform="translate(94.288 10.261)" fill="url(#linear-gradient-14)"/>
    <path id="Tracé_435" data-name="Tracé 435" d="M313.221,74.021,332.83,60.353s-3.5-2.524-6.22-.391S307.6,74.3,307.6,74.3Z" transform="translate(94.288 10.19)" fill="url(#linear-gradient-15)"/>
    <path id="Tracé_436" data-name="Tracé 436" d="M307.689,224.294a3.264,3.264,0,0,0,.656,1.018,2.915,2.915,0,0,0,1.213.6,8.159,8.159,0,0,0,6.778-1.116,4.756,4.756,0,0,0,1.827-2.162,6.821,6.821,0,0,0-.265-4.184l-1.158-4.017a.307.307,0,0,0-.07-.153h-.321c-3.361,2.008-7.322,0-10.53,1.395C303.115,216.986,306.7,222.258,307.689,224.294Z" transform="translate(93.194 71.435)" fill="url(#linear-gradient-16)"/>
    <path id="Tracé_437" data-name="Tracé 437" d="M311.307,222.884a22.652,22.652,0,0,0-3.361.46,3.319,3.319,0,0,0-2.371,2.2,4.547,4.547,0,0,0,.8,3c.809,1.492,1.618,2.985,2.482,4.449a5.579,5.579,0,0,0,2.134,2.371,4.951,4.951,0,0,0,2.957.223,36.18,36.18,0,0,0,8.577-2.789q8.368-3.529,16.611-7.545c.907-.446,1.911-1.018,2.092-2.008a2.162,2.162,0,0,0-.683-1.883,5.578,5.578,0,0,0-1.785-1.06,42.134,42.134,0,0,0-12.217-2.692c-1.478-.153-3.961-.851-5.342-.181s-2.706,2.315-4.184,3.208a14.6,14.6,0,0,1-5.7,2.245Z" transform="translate(93.482 72.566)" fill="#3e3e54"/>
    <path id="Tracé_438" data-name="Tracé 438" d="M293.495,122.725a20.572,20.572,0,0,1-7.95,2.789l-15.132,3.054a37.35,37.35,0,0,1-10.167,1.116,34.951,34.951,0,0,1-9.065-2.245c-11.743-4.184-30.362-9.107-39.372-18.229-6.82-6.973-5.146-20.781,3.668-24.24a12.078,12.078,0,0,1,5.272-.781c7.475.474,12.552,7.35,18.3,12.19,12.329,10.516,29.539,12.343,45.746,13.542h1.423c4.184.307,9.344,1.395,10.488,5.4C297.414,118.15,295.824,121.093,293.495,122.725Z" transform="translate(54.823 20.077)" fill="#de0c0c"/>
    <path id="Tracé_439" data-name="Tracé 439" d="M280.162,151.449,321.5,128.8,325.573,70s-6.276-2.594-6.792,3.361-4.909,50.711-4.909,50.711l-35.7,18.884S272.854,148.325,280.162,151.449Z" transform="translate(81.935 14.268)" fill="#de0c0c"/>
    <path id="Tracé_440" data-name="Tracé 440" d="M208.989,295.687a85.745,85.745,0,0,1-45.481,34.867l7.113-15.258c-8.926,11.046-17.922,22.148-28.493,31.645s-22.915,17.378-36.666,20.92c-1.395-2.022.1-4.728,1.576-6.694a290.528,290.528,0,0,1,32.482-36.415c-27.238,15.858-54.588,31.771-83.89,43.375A331.293,331.293,0,0,1,122.575,299.1l-17.964,4.63A264.083,264.083,0,0,1,179.729,243.4C191.43,259.425,200.761,277.709,208.989,295.687Z" transform="translate(-5.161 82.928)" fill="#de0c0c"/>
    <path id="Tracé_441" data-name="Tracé 441" d="M208.989,295.687a85.745,85.745,0,0,1-45.481,34.867l7.113-15.258c-8.926,11.046-17.922,22.148-28.493,31.645s-22.915,17.378-36.666,20.92c-1.395-2.022.1-4.728,1.576-6.694a290.528,290.528,0,0,1,32.482-36.415c-27.238,15.858-54.588,31.771-83.89,43.375A331.293,331.293,0,0,1,122.575,299.1l-17.964,4.63A264.083,264.083,0,0,1,179.729,243.4C191.43,259.425,200.761,277.709,208.989,295.687Z" transform="translate(-5.161 82.928)" fill="url(#linear-gradient-17)"/>
    <path id="Tracé_442" data-name="Tracé 442" d="M128.954,276.686c-.656.907-1.311,2.12-.739,3.082a3.041,3.041,0,0,0,1.743,1.074l5.37,1.771a159,159,0,0,0-19.051,19.944c-.962,1.2-1.9,3.026-.795,4.1a2.887,2.887,0,0,0,1.855.656c7.462.669,14.421-3.459,20.781-7.42a31.938,31.938,0,0,1-5.886,11.52c7.2-1.395,13.71-5.119,19.526-9.456s11.3-9.3,17.294-13.5l-1.98,5.16a33.821,33.821,0,0,0,9.316-9.149,4.184,4.184,0,0,0,.572-4.881,80.223,80.223,0,0,0-12.678-22.413,11.631,11.631,0,0,0-3.487-3.222c-4.379-2.3-13.514,5.188-17.029,7.768a67.321,67.321,0,0,0-14.812,14.965Z" transform="translate(18.265 86.922)" fill="#de0c0c"/>
    <path id="Tracé_443" data-name="Tracé 443" d="M128.954,276.686c-.656.907-1.311,2.12-.739,3.082a3.041,3.041,0,0,0,1.743,1.074l5.37,1.771a159,159,0,0,0-19.051,19.944c-.962,1.2-1.9,3.026-.795,4.1a2.887,2.887,0,0,0,1.855.656c7.462.669,14.421-3.459,20.781-7.42a31.938,31.938,0,0,1-5.886,11.52c7.2-1.395,13.71-5.119,19.526-9.456s11.3-9.3,17.294-13.5l-1.98,5.16a33.821,33.821,0,0,0,9.316-9.149,4.184,4.184,0,0,0,.572-4.881,80.223,80.223,0,0,0-12.678-22.413,11.631,11.631,0,0,0-3.487-3.222c-4.379-2.3-13.514,5.188-17.029,7.768a67.321,67.321,0,0,0-14.812,14.965Z" transform="translate(18.265 86.922)" fill="url(#linear-gradient-18)"/>
    <path id="Tracé_444" data-name="Tracé 444" d="M288.776,115.249a5.816,5.816,0,0,1-2.636.377c-9.316,0-18.7-.139-27.894-1.771s-18.256-4.9-25.509-10.739c-5.118-4.184-9.163-9.358-14.3-13.431-1.395-1.158-5.021-2.608-5.2-4.714a12.078,12.078,0,0,1,5.272-.781c7.475.474,12.552,7.35,18.3,12.19,12.329,10.516,29.539,12.343,45.746,13.542h.335a14.56,14.56,0,0,1,5.844,1.771,2.44,2.44,0,0,1,1.213,1.325A1.994,1.994,0,0,1,288.776,115.249Z" transform="translate(57.046 20.077)" fill="url(#linear-gradient-19)"/>
    <path id="Tracé_445" data-name="Tracé 445" d="M548.42,85.878,546.7,95.389a226.806,226.806,0,0,1-20.376,49.525C506.9,180.521,471.35,227.131,406.874,270.436c-101.268,68.144-190.137,79.5-222.926,81.226L172.79,336.168c256.454-75.717,317.04-196.888,324.1-197.892s28.284-52.5,28.284-52.5Z" transform="translate(41.081 20.718)" fill="url(#linear-gradient-20)"/>
    <path id="Tracé_446" data-name="Tracé 446" d="M249.186,51.132a5.16,5.16,0,0,1-2.441,2.789,15.565,15.565,0,0,1-2.789,1.395l-10.948,4.407a9.33,9.33,0,0,1-3.459.474,5.844,5.844,0,0,0-2.789.586,39.136,39.136,0,0,1-6.973,3.487,20.613,20.613,0,0,1-8.856.237,13.319,13.319,0,0,0-6.374,0c-.7.251-1.395.642-2.064.837a4.491,4.491,0,0,1-3.71-.628,1.032,1.032,0,0,1-.335-.363c-.112-.321.139-.642.391-.879a12.873,12.873,0,0,1,5.439-2.287,39.512,39.512,0,0,0,12.064-5.035c4.407-2.971,7.838-7.336,12.552-9.763a25.1,25.1,0,0,1,11.074-2.3,12.092,12.092,0,0,1,6.555,1.395A5.174,5.174,0,0,1,249.186,51.132Z" transform="translate(51.197 4.251)" fill="none"/>
  </g>
</svg>
