<svg xmlns="http://www.w3.org/2000/svg" width="78.99" height="31.729" viewBox="0 0 78.99 31.729"><defs><style>.a{fill:#ff4940;}</style></defs><path class="a" d="M639.579,286.951c-.149.82-.075,1.527,1.044,1.527H641.7l-.8,4.212c-.913,0-1.827,0-2.971,0-3.392-.01-4.767-1.413-4.208-4.73l2.255-12.72h5.691Z" transform="translate(-598.395 -267.788)"/><path class="a" d="M668.8,193.884c1.737,0,3.04.9,3.04,2.773,0,1.8-1.3,2.739-3.04,2.739a2.762,2.762,0,1,1,0-5.512Z" transform="translate(-628.047 -193.007)"/><path class="a" d="M405.068,200.767h-1.217l-1.26,7.159H396.9l4.38-24.9h5.691l-2.365,13.492h.925l5.13-6.043h6.1l-6.919,8.279,1.936,3.729c.671,1.267,1.568,1.222,3.034,1.222l-.661,4.223c-.743,0-1.651,0-2.918-.006-1.826-.008-3.222-.408-4.191-2.607Z" transform="translate(-380.812 -183.025)"/><path class="a" d="M743.737,270.167c-2.8,0-4.435,1.559-5.367,3.945l.607-3.535h-5.6l-4.277,24.28h5.691l2.8-16.16c.485-2.758,1.752-4.025,3.205-4.025,1.6,0,2.684,1.155,2.684,3.5,0,3.205-1.1,5.646-3.751,5.644h-1.414l-.8,4.211c.6,0,2.217-.011,3.3-.011,5.591,0,8.735-4.29,8.735-10.4C749.552,272.584,747.054,270.167,743.737,270.167Z" transform="translate(-686.175 -263.127)"/><path class="a" d="M214.911,276.322c.236-3.458-2.212-5.888-6.765-6.2a8.587,8.587,0,0,0-5.54,1.543,5.38,5.38,0,0,0-2.349,4.207,3.949,3.949,0,0,0,.834,2.877,9.5,9.5,0,0,0,3.938,2.264c2.419.852,2.835,1.294,2.782,2.081-.075,1.1-.94,1.69-2.275,1.6a2.653,2.653,0,0,1-2.707-2.661l-5.079.341a5.134,5.134,0,0,0,2.091,4.133,9.38,9.38,0,0,0,5.342,1.845,9.045,9.045,0,0,0,5.765-1.329,5.515,5.515,0,0,0,2.5-4.4,3.728,3.728,0,0,0-.874-2.811A10.385,10.385,0,0,0,208.5,277.5c-2.415-.887-2.864-1.366-2.815-2.083.068-.994.941-1.594,2.209-1.527a2.1,2.1,0,0,1,2.2,2.353s0,.039,0,.059Z" transform="translate(-197.75 -263.069)"/><path class="a" d="M989.271,292.687H983.58l3.07-17.451h5.66Z" transform="translate(-920.096 -267.787)"/><path class="a" d="M1105.387,272.875c1.714,0,3,.89,3,2.736,0,1.78-1.285,2.7-3,2.7a2.725,2.725,0,1,1,0-5.438Z" transform="translate(-1029.396 -265.616)"/></svg>