<?xml version="1.0" standalone="no"?>
<svg xmlns:xlink="http://www.w3.org/1999/xlink" id="wave" style="transform:rotate(0deg); transition: 0.3s" width='1840' height='110'  viewBox="0 0 1840 110" version="1.1" xmlns="http://www.w3.org/2000/svg"><defs><linearGradient id="sw-gradient-0" x1="0" x2="0" y1="1" y2="0"><stop stop-color="white" offset="0%"/><stop stop-color="white" offset="100%"/></linearGradient></defs><path style="transform:translate(0, 0px); opacity:1" fill="url(#sw-gradient-0)" d="M0,78L60,73.7C120,69,240,61,360,67.2C480,74,600,95,720,95.3C840,95,960,74,1080,67.2C1200,61,1320,69,1440,67.2C1560,65,1680,52,1800,41.2C1920,30,2040,22,2160,34.7C2280,48,2400,82,2520,80.2C2640,78,2760,39,2880,30.3C3000,22,3120,43,3240,47.7C3360,52,3480,39,3600,28.2C3720,17,3840,9,3960,6.5C4080,4,4200,9,4320,17.3C4440,26,4560,39,4680,56.3C4800,74,4920,95,5040,95.3C5160,95,5280,74,5400,73.7C5520,74,5640,95,5760,99.7C5880,104,6000,91,6120,91C6240,91,6360,104,6480,95.3C6600,87,6720,56,6840,47.7C6960,39,7080,52,7200,65C7320,78,7440,91,7560,84.5C7680,78,7800,52,7920,52C8040,52,8160,78,8280,75.8C8400,74,8520,43,8580,28.2L8640,13L8640,130L8580,130C8520,130,8400,130,8280,130C8160,130,8040,130,7920,130C7800,130,7680,130,7560,130C7440,130,7320,130,7200,130C7080,130,6960,130,6840,130C6720,130,6600,130,6480,130C6360,130,6240,130,6120,130C6000,130,5880,130,5760,130C5640,130,5520,130,5400,130C5280,130,5160,130,5040,130C4920,130,4800,130,4680,130C4560,130,4440,130,4320,130C4200,130,4080,130,3960,130C3840,130,3720,130,3600,130C3480,130,3360,130,3240,130C3120,130,3000,130,2880,130C2760,130,2640,130,2520,130C2400,130,2280,130,2160,130C2040,130,1920,130,1800,130C1680,130,1560,130,1440,130C1320,130,1200,130,1080,130C960,130,840,130,720,130C600,130,480,130,360,130C240,130,120,130,60,130L0,130Z"/></svg>