<?xml version="1.0" standalone="no"?>
<svg xmlns:xlink="http://www.w3.org/1999/xlink" id="wave" style="transform:rotate(-90deg); transition: 0.3s" viewBox="0 0 1440 1440" version="1.1" xmlns="http://www.w3.org/2000/svg"><defs><linearGradient id="sw-gradient-0" x1="0" x2="0" y1="1" y2="0"><stop stop-color="rgba(255, 255, 255, 1)" offset="0%"/><stop stop-color="rgba(255, 255, 255, 1)" offset="100%"/></linearGradient></defs><path style="transform:translate(0, 0px); opacity:1" fill="url(#sw-gradient-0)" d="M0,80L21.8,82.7C43.6,85,87,91,131,93.3C174.5,96,218,96,262,90.7C305.5,85,349,75,393,66.7C436.4,59,480,53,524,64C567.3,75,611,101,655,117.3C698.2,133,742,139,785,133.3C829.1,128,873,112,916,98.7C960,85,1004,75,1047,64C1090.9,53,1135,43,1178,42.7C1221.8,43,1265,53,1309,56C1352.7,59,1396,53,1440,50.7C1483.6,48,1527,48,1571,53.3C1614.5,59,1658,69,1702,69.3C1745.5,69,1789,59,1833,66.7C1876.4,75,1920,101,1964,96C2007.3,91,2051,53,2095,34.7C2138.2,16,2182,16,2225,32C2269.1,48,2313,80,2356,101.3C2400,123,2444,133,2487,133.3C2530.9,133,2575,123,2618,98.7C2661.8,75,2705,37,2749,26.7C2792.7,16,2836,32,2880,42.7C2923.6,53,2967,59,3011,58.7C3054.5,59,3098,53,3120,50.7L3141.8,48L3141.8,160L3120,160C3098.2,160,3055,160,3011,160C2967.3,160,2924,160,2880,160C2836.4,160,2793,160,2749,160C2705.5,160,2662,160,2618,160C2574.5,160,2531,160,2487,160C2443.6,160,2400,160,2356,160C2312.7,160,2269,160,2225,160C2181.8,160,2138,160,2095,160C2050.9,160,2007,160,1964,160C1920,160,1876,160,1833,160C1789.1,160,1745,160,1702,160C1658.2,160,1615,160,1571,160C1527.3,160,1484,160,1440,160C1396.4,160,1353,160,1309,160C1265.5,160,1222,160,1178,160C1134.5,160,1091,160,1047,160C1003.6,160,960,160,916,160C872.7,160,829,160,785,160C741.8,160,698,160,655,160C610.9,160,567,160,524,160C480,160,436,160,393,160C349.1,160,305,160,262,160C218.2,160,175,160,131,160C87.3,160,44,160,22,160L0,160Z"/></svg>