<svg xmlns="http://www.w3.org/2000/svg" viewBox="0 0 1821.72 2637.56"><defs><style>.cls-1{fill:none;stroke:#ef233c;stroke-miterlimit:30;stroke-width:10px;stroke-dasharray:40;}</style></defs><g id="Calque_2" data-name="Calque 2"><g id="Calque_1-2" data-name="Calque 1"><path id="star-path" class="cls-1" d="M600.87,5c80.3-.9,150.9,54.2,199.8,113.3,57.4,69.5,79.3,152.6,110.8,235.3,50.1,131.6,162.9,207.5,300.2,224.5,91.8,11.3,184.4-1.9,276.3,7.1,87.2,8.5,179.8,41.8,244.4,102.8,44.1,41.8,82.2,92.5,79.3,152.7-9.4,194.7-32.7,210.1-185.8,260.3-218.1,71.4-640.5-137.2-968,13.5-55.6,26.37-111.44,57.75-149,98-67.84,72.7-54.16,91.29-27,174,29.78,90.71,85.88,317.77,165.06,375,218.35,158,301,15.14,507.34,15.65,282.89.7,322.93,39,365.22,47.65,74.9,15.34,229.89,106.38,259.81,156.51,51.87,86.89,37.77,207,28,291.94-14.9,128.9-59.7,200.2-153.4,241-128.8,47.1-1691,120.5-1648,118.2"/></g></g></svg>