<svg xmlns="http://www.w3.org/2000/svg" viewBox="0 0 496 453"><defs><style>.cls-1{fill:#2b2d42;}</style></defs><g id="Calque_2" data-name="Calque 2"><g id="Calque_1-2" data-name="Calque 1"><path class="cls-1" d="M0,411V42c0-1.38.07-2.75.2-4.12s.34-2.72.61-4.07.6-2.69,1-4A40.69,40.69,0,0,1,3.2,25.93,39.63,39.63,0,0,1,5,22.2a40.71,40.71,0,0,1,2.12-3.53,39.85,39.85,0,0,1,2.45-3.31c.88-1.07,1.8-2.09,2.77-3.06s2-1.89,3.06-2.77a39.85,39.85,0,0,1,3.31-2.45A40.71,40.71,0,0,1,22.2,5,39.63,39.63,0,0,1,25.93,3.2a40.69,40.69,0,0,1,3.88-1.39c1.31-.4,2.65-.73,4-1S36.51.34,37.88.2,40.62,0,42,0H454c1.38,0,2.75.07,4.12.2s2.72.34,4.07.61,2.69.6,4,1a40.69,40.69,0,0,1,3.88,1.39A39.63,39.63,0,0,1,473.8,5a40.71,40.71,0,0,1,3.53,2.12,39.85,39.85,0,0,1,3.31,2.45c1.07.88,2.09,1.8,3.06,2.77s1.89,2,2.77,3.06a39.85,39.85,0,0,1,2.45,3.31A40.71,40.71,0,0,1,491,22.2a39.63,39.63,0,0,1,1.76,3.73,40.69,40.69,0,0,1,1.39,3.88c.4,1.31.73,2.65,1,4s.47,2.7.61,4.07.2,2.74.2,4.12V411c0,1.38-.07,2.75-.2,4.12s-.34,2.72-.61,4.07-.6,2.69-1,4a40.69,40.69,0,0,1-1.39,3.88A39.63,39.63,0,0,1,491,430.8a40.71,40.71,0,0,1-2.12,3.53,39.85,39.85,0,0,1-2.45,3.31c-.88,1.07-1.8,2.09-2.77,3.06s-2,1.89-3.06,2.77a39.85,39.85,0,0,1-3.31,2.45A40.71,40.71,0,0,1,473.8,448a39.63,39.63,0,0,1-3.73,1.76,40.69,40.69,0,0,1-3.88,1.39c-1.31.4-2.65.73-4,1s-2.7.47-4.07.61-2.74.2-4.12.2H42c-1.38,0-2.75-.07-4.12-.2s-2.72-.34-4.07-.61-2.69-.6-4-1a40.69,40.69,0,0,1-3.88-1.39A39.63,39.63,0,0,1,22.2,448a40.71,40.71,0,0,1-3.53-2.12,39.85,39.85,0,0,1-3.31-2.45c-1.07-.88-2.09-1.8-3.06-2.77s-1.89-2-2.77-3.06a39.85,39.85,0,0,1-2.45-3.31A40.71,40.71,0,0,1,5,430.8a39.63,39.63,0,0,1-1.76-3.73,40.69,40.69,0,0,1-1.39-3.88c-.4-1.31-.73-2.65-1-4s-.47-2.7-.61-4.07S0,412.38,0,411Z"/></g></g></svg>