<?xml version="1.0" standalone="no"?>
<svg xmlns:xlink="http://www.w3.org/1999/xlink" id="wave" style="transform:rotate(0deg); transition: 0.3s" viewBox="0 0 1440 110" version="1.1" xmlns="http://www.w3.org/2000/svg"><defs><linearGradient id="sw-gradient-0" x1="0" x2="0" y1="1" y2="0"><stop stop-color="rgba(255, 255, 255, 1)" offset="0%"/><stop stop-color="rgba(255, 255, 255, 1)" offset="100%"/></linearGradient></defs><path style="transform:translate(0, 0px); opacity:1" fill="url(#sw-gradient-0)" d="M0,77L30,66C60,55,120,33,180,23.8C240,15,300,18,360,33C420,48,480,73,540,82.5C600,92,660,84,720,67.8C780,51,840,26,900,25.7C960,26,1020,51,1080,60.5C1140,70,1200,62,1260,62.3C1320,62,1380,70,1440,60.5C1500,51,1560,26,1620,25.7C1680,26,1740,51,1800,67.8C1860,84,1920,92,1980,89.8C2040,88,2100,77,2160,77C2220,77,2280,88,2340,82.5C2400,77,2460,55,2520,45.8C2580,37,2640,40,2700,38.5C2760,37,2820,29,2880,23.8C2940,18,3000,15,3060,27.5C3120,40,3180,70,3240,78.8C3300,88,3360,77,3420,62.3C3480,48,3540,29,3600,22C3660,15,3720,18,3780,25.7C3840,33,3900,44,3960,56.8C4020,70,4080,84,4140,84.3C4200,84,4260,70,4290,62.3L4320,55L4320,110L4290,110C4260,110,4200,110,4140,110C4080,110,4020,110,3960,110C3900,110,3840,110,3780,110C3720,110,3660,110,3600,110C3540,110,3480,110,3420,110C3360,110,3300,110,3240,110C3180,110,3120,110,3060,110C3000,110,2940,110,2880,110C2820,110,2760,110,2700,110C2640,110,2580,110,2520,110C2460,110,2400,110,2340,110C2280,110,2220,110,2160,110C2100,110,2040,110,1980,110C1920,110,1860,110,1800,110C1740,110,1680,110,1620,110C1560,110,1500,110,1440,110C1380,110,1320,110,1260,110C1200,110,1140,110,1080,110C1020,110,960,110,900,110C840,110,780,110,720,110C660,110,600,110,540,110C480,110,420,110,360,110C300,110,240,110,180,110C120,110,60,110,30,110L0,110Z"/></svg>