<?xml version="1.0" encoding="UTF-8" standalone="no"?>
<svg
   xmlns:dc="http://purl.org/dc/elements/1.1/"
   xmlns:cc="http://creativecommons.org/ns#"
   xmlns:rdf="http://www.w3.org/1999/02/22-rdf-syntax-ns#"
   xmlns:svg="http://www.w3.org/2000/svg"
   xmlns="http://www.w3.org/2000/svg"
   viewBox="0 0 627.05334 211.84"
   height="39"
   width="132"
   xml:space="preserve"
   id="svg2"
   version="1.1"><metadata
     id="metadata8"><rdf:RDF><cc:Work
         rdf:about=""><dc:format>image/svg+xml</dc:format><dc:type
           rdf:resource="http://purl.org/dc/dcmitype/StillImage" /></cc:Work></rdf:RDF></metadata><defs
     id="defs6" /><g
     transform="matrix(1.3333333,0,0,-1.3333333,0,211.84)"
     id="g10"><g
       transform="scale(0.1)"
       id="g12"><path
         id="path14"
         style="fill:#4fbe37;fill-opacity:1;fill-rule:nonzero;stroke:none"
         d="m 4617.7,1271.06 c -109.9,189.91 -315.1,317.77 -550.3,317.77 H 2987 c -175.5,0 -317.77,-142.27 -317.77,-317.77 V 635.531 c 0,-175.5 142.27,-317.769 317.77,-317.769 175.5,0 317.77,142.269 317.77,317.769 v 285.992 c 0,17.543 14.22,31.774 31.77,31.774 17.55,0 31.78,-14.231 31.78,-31.774 V 635.531 c 0,-175.5 142.27,-317.769 317.76,-317.769 175.5,0 317.77,142.269 317.77,317.769 v 285.992 c 0,17.543 14.23,31.774 31.78,31.774 17.55,0 31.77,-14.231 31.77,-31.774 V 635.531 c 0,-175.5 142.27,-317.769 317.77,-317.769 175.5,0 317.76,142.269 317.76,317.769 v 317.766 c 0,115.793 -31.12,224.263 -85.23,317.763" /><path
         id="path16"
         style="fill:#4fbe37;fill-opacity:1;fill-rule:nonzero;stroke:none"
         d="m 1970.15,1588.83 c -351,0 -635.53,-284.53 -635.53,-635.529 0,-350.996 284.53,-635.531 635.53,-635.531 350.99,0 635.53,284.535 635.53,635.531 0,350.999 -284.54,635.529 -635.53,635.529 m 0,-686.377 c -28.04,0 -50.84,22.813 -50.84,50.848 0,28.027 22.8,50.839 50.84,50.839 28.03,0 50.84,-22.812 50.84,-50.839 0,-28.035 -22.81,-50.848 -50.84,-50.848" /><path
         id="path18"
         style="fill:#4fbe37;fill-opacity:1;fill-rule:nonzero;stroke:none"
         d="M 635.531,1588.83 H 317.766 C 142.266,1588.83 0,1446.56 0,1271.07 V 317.77 C 0,142.27 142.266,0 317.766,0 c 175.496,0 317.765,142.27 317.765,317.77 350.992,0 635.529,284.535 635.529,635.531 0,350.999 -284.537,635.529 -635.529,635.529 m 0,-686.377 c -28.035,0 -50.84,22.813 -50.84,50.848 0,28.027 22.805,50.839 50.84,50.839 28.035,0 50.84,-22.812 50.84,-50.839 0,-28.035 -22.805,-50.848 -50.84,-50.848" /></g></g></svg>