<?xml version="1.0" standalone="no"?>
<!DOCTYPE svg PUBLIC "-//W3C//DTD SVG 20010904//EN"
 "http://www.w3.org/TR/2001/REC-SVG-20010904/DTD/svg10.dtd">
<svg version="1.0" xmlns="http://www.w3.org/2000/svg"
 width="874.000000pt" height="202.000000pt" viewBox="0 0 874.000000 202.000000"
 preserveAspectRatio="xMidYMid meet">

<g transform="translate(0.000000,202.000000) scale(0.100000,-0.100000)"
fill="#a9a9a9" stroke="none">
<path d="M1003 1158 c-51 -57 -174 -234 -240 -348 -119 -202 -154 -315 -134
-425 33 -180 172 -316 354 -348 127 -21 258 23 356 120 95 96 139 223 119 348
-17 107 -108 285 -251 490 -137 195 -159 213 -204 163z m114 -195 c98 -141
186 -290 223 -380 44 -105 44 -180 1 -268 -80 -163 -268 -234 -426 -161 -105
48 -173 134 -197 250 -13 66 4 131 67 255 63 124 242 401 260 401 2 0 35 -44
72 -97z"/>
<path d="M5241 1165 c-94 -27 -143 -77 -157 -162 -9 -58 11 -116 52 -152 43
-38 81 -55 178 -76 81 -18 110 -36 121 -73 5 -17 -1 -30 -24 -52 -26 -27 -36
-30 -91 -30 -66 0 -112 15 -163 54 -41 32 -52 32 -71 4 -27 -39 -20 -82 18
-116 51 -45 98 -57 216 -57 90 0 112 3 153 24 73 36 101 79 105 165 3 62 1 76
-20 106 -31 46 -105 85 -198 106 -108 24 -130 37 -130 78 0 42 26 66 79 73 59
8 104 -4 161 -42 l51 -35 25 25 c48 48 23 109 -62 146 -59 26 -175 33 -243 14z"/>
<path d="M8344 1167 c-176 -45 -271 -197 -243 -392 16 -115 78 -204 172 -246
41 -19 69 -24 132 -23 83 0 131 15 173 54 27 25 29 25 36 -5 8 -31 38 -47 79
-43 l32 3 3 165 c2 146 1 166 -15 177 -21 16 -245 18 -274 3 -22 -12 -27 -68
-7 -88 7 -7 43 -12 90 -12 72 0 78 -2 78 -20 0 -112 -194 -164 -289 -77 -78
72 -82 245 -8 326 71 77 205 79 284 4 33 -31 37 -32 63 -18 74 38 43 130 -59
174 -63 27 -178 35 -247 18z"/>
<path d="M2580 1150 c-19 -19 -20 -33 -20 -314 0 -329 -1 -326 68 -326 67 0
66 -3 72 227 l5 208 56 -135 c64 -152 81 -170 148 -154 34 9 37 13 91 141 30
72 58 135 63 139 4 4 7 -85 7 -197 0 -146 3 -208 12 -217 7 -7 31 -12 54 -12
74 0 74 2 74 328 l0 283 -25 24 c-19 20 -34 25 -73 25 -26 0 -56 -6 -65 -12
-10 -7 -49 -85 -87 -173 -38 -88 -72 -160 -76 -160 -4 0 -37 72 -75 160 -37
88 -76 165 -85 172 -29 21 -120 17 -144 -7z"/>
<path d="M4794 1156 c-18 -14 -19 -30 -22 -303 -3 -335 -2 -336 70 -341 80 -5
78 -13 78 328 0 334 1 330 -69 330 -20 0 -46 -6 -57 -14z"/>
<path d="M7064 1156 c-18 -14 -19 -30 -22 -303 -3 -335 -2 -336 70 -341 80 -5
78 -13 78 328 0 334 1 330 -69 330 -20 0 -46 -6 -57 -14z"/>
<path d="M7390 1150 c-19 -19 -20 -33 -20 -314 0 -330 -1 -326 70 -326 66 0
70 14 70 240 l0 195 83 -114 c239 -329 227 -316 279 -319 78 -5 78 -5 78 330
0 275 -1 289 -20 308 -25 25 -81 26 -103 2 -14 -15 -17 -49 -19 -212 l-3 -195
-143 198 c-79 108 -153 204 -165 212 -31 21 -83 19 -107 -5z"/>
<path d="M3394 1139 c-17 -19 -19 -42 -22 -278 -2 -162 1 -269 7 -292 17 -56
38 -61 275 -57 192 3 209 4 222 22 8 11 14 31 14 45 0 54 -6 56 -192 61 l-173
5 -3 68 -3 67 116 0 c124 0 151 7 165 45 25 65 -16 85 -171 85 l-109 0 0 60 0
60 153 0 c180 0 200 7 205 63 6 67 5 67 -243 67 -213 0 -223 -1 -241 -21z"/>
<path d="M4051 1141 c-20 -20 -21 -31 -21 -295 0 -151 3 -282 6 -291 13 -32
59 -45 162 -45 181 0 276 31 351 116 55 63 75 131 69 238 -7 132 -59 214 -168
265 -51 24 -67 26 -217 29 -153 4 -162 3 -182 -17z m329 -132 c62 -34 90 -86
90 -167 0 -135 -72 -201 -222 -202 l-68 0 0 201 0 202 78 -5 c58 -3 90 -11
122 -29z"/>
<path d="M5754 1152 c-30 -20 -34 -55 -34 -324 0 -315 1 -318 74 -318 65 0 76
18 76 123 l0 87 53 0 c148 0 253 41 291 115 26 50 28 164 4 210 -24 45 -68 82
-117 100 -46 16 -325 22 -347 7z m308 -141 c37 -41 39 -98 4 -138 -23 -26 -31
-28 -110 -32 l-86 -3 0 107 0 108 82 -5 c76 -5 83 -7 110 -37z"/>
<path d="M6387 1142 c-15 -17 -17 -48 -17 -310 0 -326 -1 -322 70 -322 61 0
70 16 70 131 l0 99 33 0 c28 -1 39 -10 97 -86 86 -113 121 -144 166 -144 38 0
84 25 84 45 0 8 -36 56 -80 109 -44 52 -80 97 -80 100 0 2 13 7 28 11 39 8
102 62 118 101 38 92 3 210 -76 254 -42 24 -55 25 -220 28 -162 3 -177 2 -193
-16z m298 -106 c40 -17 55 -42 55 -91 0 -68 -64 -102 -180 -93 l-45 3 -3 98
-3 97 71 0 c39 0 86 -6 105 -14z"/>
</g>
</svg>
