<svg xmlns="http://www.w3.org/2000/svg" width="132.375" height="39.25" viewBox="0 0 132.375 39.25">
  <defs>
    <style>
      .cls-1 {
        fill: #3e6cb3;
        fill-rule: evenodd;
      }
    </style>
  </defs>
  <path class="cls-1" d="M392.939,2113.54H365.65a5.992,5.992,0,0,0-5.974,5.97v27.29a5.994,5.994,0,0,0,5.974,5.98h27.289a5.994,5.994,0,0,0,5.974-5.98v-27.29A5.992,5.992,0,0,0,392.939,2113.54Zm-14.362,13.11H378.53a6.61,6.61,0,0,0,.047,13.06v3.8a10.383,10.383,0,0,1-.047-20.66h0.047v3.8Zm1.436,16.86v-3.8a6.611,6.611,0,0,0,.046-13.06h-0.046v-3.8h0.046A10.383,10.383,0,0,1,380.013,2143.51Z" transform="translate(-359.688 -2113.53)"/>
  <path class="cls-1" d="M461.363,2125.48l0-.01h-0.07l0,0.01a5.617,5.617,0,0,0-4.119,1.74,5.68,5.68,0,0,0-1.744,4.21v8.97h2.654v-8.64a3.246,3.246,0,1,1,6.492,0v8.64h2.655v-8.97a5.681,5.681,0,0,0-1.745-4.21A5.617,5.617,0,0,0,461.363,2125.48Zm9.8,0,0-.01h-0.07l0,0.01a5.617,5.617,0,0,0-4.119,1.74c-0.141.14-.149,0.14-0.272,0.28a5.926,5.926,0,0,1,1.218,3.77,3.244,3.244,0,0,1,6.456.49v8.64h2.654v-8.97a5.68,5.68,0,0,0-1.744-4.21A5.617,5.617,0,0,0,471.161,2125.48Zm17.53,14.49v-3.21a4.175,4.175,0,0,1-3.165.96,4.42,4.42,0,0,1-3.183-1.32,4.364,4.364,0,0,1-1.324-3.19v-7.43h-2.671v7.76a7.194,7.194,0,0,0,7.178,7.16A7.033,7.033,0,0,0,488.691,2139.97Zm0.7-14.19v7.43c0,0.04,0,.07,0,0.11v6.11c-0.056,2.37-.776,4.11-2.144,5.17a4.545,4.545,0,0,1-2.285.96l0.007,0.37h-0.006l0.024,1.34v1.32a6.975,6.975,0,0,0,4.248-1.84c1.88-1.62,2.832-4.07,2.832-7.29v-13.68h-2.671Zm-47.71,6.96a7.3,7.3,0,0,0-14.6,0v15.86h2.744v-15.63h0l0-.04v-0.04a4.57,4.57,0,0,1,7.8-3.05,4.445,4.445,0,0,1,1.333,3.05v0.04a4.459,4.459,0,0,1-1.329,3.06l0,0.01a4.476,4.476,0,0,1-3.25,1.34c-1.235,0-2.975-.12-3.87-0.99v3.31a10.374,10.374,0,0,0,3.87.73,7.346,7.346,0,0,0,7.311-7.32,0.419,0.419,0,0,0,0-.05c0-.04,0-0.07,0-0.1,0-.05,0-0.09,0-0.12S441.679,2132.76,441.679,2132.74Zm6.142,3.6c-1.425-1.1-2.148-2.94-2.148-5.47v-9.71H443v10.04c0,3.22.951,5.67,2.828,7.29a7.082,7.082,0,0,0,4.252,1.83v-1.31l0.024-1.34H450.1l0.007-.37A4.563,4.563,0,0,1,447.821,2136.34Zm3.61,4.06H454.1v-14.93h-2.671v14.93Zm1.336-19.24a1.465,1.465,0,1,0,1.469,1.47A1.464,1.464,0,0,0,452.767,2121.16Zm-33.669,4.38h-0.039v2.71c0.013,0,.026.01,0.039,0.01a4.721,4.721,0,0,1,3.966,4.66,4.773,4.773,0,0,1-4,4.67v2.7A7.412,7.412,0,0,0,419.1,2125.54Zm-7.723,7.38a7.441,7.441,0,0,0,6.691,7.37v-2.7a4.774,4.774,0,0,1-4-4.67,4.722,4.722,0,0,1,3.966-4.66c0.013,0,.026-0.01.039-0.01v-2.71h-0.039A7.417,7.417,0,0,0,411.375,2132.92Zm34.96-7.45v2.67s0.441,0.02,1.886.02c2.038,0,1.887-2.69,1.887-2.69h-3.773Z" transform="translate(-359.688 -2113.53)"/>
</svg>
