<svg enable-background="new 0 0 173 56" height="39" viewBox="0 0 173 56" width="173" xmlns="http://www.w3.org/2000/svg"><g fill="#73abd8"><path d="m11.615 49.119-1.821-4.789h-2.652v7.332h1.754v-5.626l1.99 5.626h1.336l2.082-5.62v5.62h1.748v-7.332h-2.616z"/><path d="m20.979 44.33-3.405 7.332h1.93l.667-1.554h3.035l.673 1.554h1.967l-3.429-7.332zm-.26 4.413.928-2.275.996 2.275z"/><path d="m31.586 47.625c-.275-.155-.569-.273-.874-.353l-.874-.25c-.238-.067-.465-.17-.674-.302-.174-.111-.276-.306-.267-.511-.004-.127.035-.25.109-.353.078-.098.178-.177.292-.23.119-.058.246-.1.376-.127.128-.026.258-.042.388-.043.234.004.465.046.686.122.222.066.419.194.571.37l1.159-1.202c-.327-.279-.709-.486-1.123-.606-.421-.118-.856-.178-1.293-.177-.379.001-.756.052-1.123.152-.346.091-.672.242-.965.449-.275.196-.503.451-.667.745-.172.32-.258.678-.249 1.039-.016.35.079.692.273.983.181.25.415.457.686.607.282.155.581.276.892.362.32.091.617.179.892.269.244.074.475.186.686.328.175.114.278.312.273.521.004.121-.033.241-.103.34-.074.099-.169.18-.279.236-.122.065-.253.112-.389.139-.141.033-.286.049-.431.05-.289-.001-.575-.062-.838-.183-.262-.114-.493-.288-.673-.51l-1.213 1.263c.354.311.768.55 1.213.704.466.148.954.221 1.445.213.393.002.784-.048 1.165-.146.346-.087.673-.236.964-.442.277-.198.503-.459.662-.76.168-.329.252-.696.243-1.066.018-.362-.076-.721-.268-1.027-.174-.249-.404-.458-.672-.604z"/><path d="m33.785 45.757h2.246v5.905h1.736v-5.905h2.245v-1.427h-6.227z"/><path d="m43.441 48.683h3.393v-1.495h-3.417v-1.365h3.642v-1.493h-5.353v7.338h5.553v-1.493h-3.818z"/><path d="m54.967 47.887c.293-.378.445-.845.431-1.322.014-.373-.067-.742-.236-1.074-.152-.281-.375-.517-.644-.687-.292-.178-.612-.301-.947-.363-.376-.075-.758-.111-1.142-.11h-3.035v7.332h1.736v-2.933h.856l1.645 2.938h2.069l-2.003-3.095c.495-.061.948-.305 1.27-.686zm-1.488-.856c-.094.11-.216.194-.352.244-.153.052-.312.083-.474.09h-.498-1.025v-1.669h1.147c.161.006.321.021.479.049.149.018.294.059.431.12.123.059.229.146.309.256.087.131.129.285.122.443.011.166-.037.333-.139.467z"/><path d="m57.327 44.33h1.736v7.332h-1.736z"/><path d="m67.093 49.43-3.35-5.1h-2.362v7.332h1.736v-5.22l3.442 5.22h2.269v-7.332h-1.735z"/><path d="m75.261 48.573h1.415v1.184c-.21.101-.43.183-.655.243-.319.085-.648.126-.978.121-.344.005-.686-.055-1.007-.176-.288-.111-.55-.277-.771-.492-.217-.21-.386-.465-.497-.746-.23-.608-.23-1.279 0-1.888.11-.283.28-.539.497-.753.221-.214.483-.381.771-.491.321-.121.664-.181 1.007-.176.378-.011.754.049 1.11.176.299.117.571.293.801.516l1.214-1.213c-.404-.347-.881-.596-1.396-.729-.569-.146-1.154-.217-1.742-.212-.577-.006-1.152.084-1.7.267-.496.166-.953.429-1.347.771-.38.335-.683.749-.887 1.214-.423 1.022-.423 2.171 0 3.192.204.463.507.877.887 1.214.394.343.851.605 1.347.77.548.185 1.123.274 1.7.269.571.001 1.14-.055 1.7-.164.555-.11 1.093-.291 1.602-.541l.012-3.828h-3.083z"/><path d="m115.597 49.119-1.821-4.789h-2.629v7.338h1.768v-5.626l1.989 5.626h1.325l2.069-5.626v5.62h1.735v-7.332h-2.615z"/><path d="m129.252 45.014c-.394-.344-.851-.605-1.347-.771-1.106-.357-2.298-.357-3.405 0-.495.166-.953.428-1.348.771-.38.335-.683.749-.886 1.214-.216.504-.324 1.047-.314 1.596-.01.549.099 1.093.314 1.597.203.463.506.877.886 1.214.395.343.853.605 1.348.77 1.106.361 2.299.361 3.405 0 .496-.164.953-.427 1.347-.77.38-.337.682-.751.886-1.214.424-1.021.424-2.171 0-3.192-.204-.466-.507-.88-.886-1.215zm-.759 3.757c-.111.281-.28.535-.497.745-.223.215-.483.382-.771.493-.651.233-1.362.233-2.015 0-.288-.111-.549-.278-.771-.493-.217-.21-.387-.464-.497-.745-.116-.302-.175-.623-.17-.947h-.024c.004-.323.07-.642.194-.94.109-.284.28-.54.497-.753.222-.214.482-.382.771-.491.652-.235 1.363-.235 2.015 0 .288.109.549.277.771.491.218.213.387.469.497.753.231.607.231 1.278 0 1.887z"/><path d="m138.107 48.414c-.157-.158-.343-.287-.546-.382-.225-.102-.462-.169-.704-.199.378-.105.72-.316.982-.608.251-.282.384-.652.371-1.031.017-.34-.072-.678-.255-.965-.171-.241-.4-.436-.667-.563-.294-.14-.608-.229-.93-.269-.342-.044-.687-.066-1.032-.066h-2.938v7.313h3.229c.354-.001.705-.034 1.051-.104.334-.061.656-.175.953-.339.273-.147.511-.354.69-.607.188-.288.281-.627.268-.972.002-.226-.04-.45-.121-.661-.077-.204-.199-.39-.351-.547zm-3.975-2.712h1.178c.138 0 .276.013.413.036.13.022.257.063.375.121.108.053.203.132.273.231.073.111.109.243.104.377.002.129-.031.257-.098.369-.063.103-.147.188-.249.249-.108.063-.228.108-.353.133-.129.028-.262.042-.395.043h-1.256zm2.604 4.139c-.07.108-.164.2-.273.268-.113.07-.24.12-.37.146-.134.027-.271.042-.407.042h-1.56v-1.668h1.311c.153 0 .305.011.455.03.156.02.309.058.456.114.135.051.256.136.351.244.1.116.147.266.141.418.005.141-.03.284-.104.406z"/><path d="m140.279 44.33h1.736v7.332h-1.736z"/><path d="m146.166 44.33h-1.735v7.338h4.953v-1.493h-3.218z"/><path d="m151.063 44.33h1.736v7.332h-1.736z"/><path d="m154.422 45.757h2.244v5.905h1.743v-5.905h2.244v-1.427h-6.231z"/><path d="m165.059 47.073-1.668-2.743h-2.161l2.962 4.206v3.126h1.737v-3.126l2.961-4.206h-2.058z"/></g><path d="m166.486 17.159h.874v2.501h.68v-2.501h.874v-.606h-2.428z" fill="#71abd7"/><path d="m171.99 16.559-.709 2.02-.711-2.02h-1.025l.012 3.101h.673v-2.374l.778 2.374h.515l.807-2.38v2.38h.68v-3.101z" fill="#71abd7"/><path d="m7.354 39.888h4.2v-19.318h7.332v-4.048h-18.803v3.945h7.271z" fill="#045379"/><path d="m37.5 39.894h4.958l-6.3-8.812s5.675-1.27 5.803-6.744c.027-.258.027-.518 0-.776 0-5.735-6.677-7.041-6.677-7.041h-12.745v23.366h4.188v-8.241l5.056.103zm-10.676-19.779h6.882c2.234.086 3.975 1.967 3.888 4.202-.082 2.112-1.776 3.807-3.888 3.888h-6.882z" fill="#045379"/><path d="m55.033 16.522-10.281 23.366h4.175l2.465-5.753h10.809l2.464 5.753h4.248l-10.238-23.366zm-2.24 14.275 4-9.371 3.981 9.371z" fill="#045379"/><path d="m126.552 29.887h11.489v-3.679h-11.489v-6.033h13.005v-3.641h-17.296v23.408h17.599v-3.683h-13.308z" fill="#045379"/><path d="m166.449 28.235c0-6.723-5.45-12.174-12.174-12.174-6.725 0-12.174 5.451-12.174 12.174 0 6.724 5.449 12.175 12.174 12.175 6.724 0 12.174-5.451 12.174-12.175zm-12.174 8.363c-4.62 0-8.363-3.743-8.363-8.363 0-4.618 3.743-8.363 8.363-8.363 4.617 0 8.362 3.745 8.362 8.363.001 4.619-3.744 8.363-8.362 8.363z" fill="#045379"/><path d="m97.604 16.367 9.028-9.027-2.731-2.853-9.218 9.074-9.14-9.074-2.811 2.774 9.105 9.03-.064.073h5.829z" fill="#73abd8"/><path d="m98.742 17.427-.41-.334.333.334z" fill="#73abd8"/><path d="m91.685 39.433-.023-.023-8.966 8.818 2.956 3.034 9.031-9.176 9.103 9.176 2.882-2.884-9.103-8.945z" fill="#73abd8"/><path d="m97.565 39.433h.061l8.729-8.751 9.102 9.104 2.859-2.78-9.183-8.958 9.183-9.104-2.956-2.882-9.029 9.03-7.665-7.665-.333-.334-.728-.726-.003-.003h-5.828-.089l-8.569 8.728-9.219-9.03-2.847 2.81 9.025 9.104-9.025 9.024 2.847 3.035 8.988-9.178 8.778 8.554.022.022zm-2.754-20.125 8.74 8.74-8.74 8.74-8.74-8.74z" fill="#005278"/></svg>