<svg width="349" height="198" viewBox="0 0 349 198" fill="none" xmlns="http://www.w3.org/2000/svg">
<rect width="349" height="198" fill="white"/>
<path d="M228.956 175.385C223.688 173.86 226.144 165.416 226.144 165.416L212.939 162.658C212.939 162.658 214.057 168.212 213.207 173.173C212.733 175.939 212.333 181.252 212.899 183.105C214.269 186.493 234.142 184.067 228.956 175.385Z" fill="#FDCBB4"/>
<path d="M212.939 162.658C212.939 162.658 214.057 168.212 213.207 173.173C212.733 175.939 212.333 181.252 212.899 183.105C213.007 183.372 213.23 183.603 213.546 183.798C212.986 181.516 212.837 176.057 213.616 174.69C214.395 173.323 213.822 170.985 214.496 171.306C216.136 172.088 221.663 171.065 225.721 171.314C225.796 169.319 226.144 165.416 226.144 165.416L212.939 162.658Z" fill="#F1A089"/>
<path d="M239.406 180.966C236.486 180.378 233.872 176.749 228.774 175.319C226.581 176.973 226.749 180.06 226.033 181.468C225.317 182.876 224.989 183.84 218.897 183.794C212.804 183.747 213.385 183.237 212.873 183.105C212.361 182.973 212.282 184.9 212.667 184.903C212.841 184.904 218.469 185.195 224.513 184.539C232.496 185.185 235.943 185.152 237.386 185.128C240.016 185.084 241.71 181.562 239.406 180.966Z" fill="#E05357"/>
<path d="M201.2 173.132C198.395 171.647 203.804 161.166 203.804 161.166L191.035 156.816C191.035 156.816 191.466 162.465 190.017 167.285C189.209 169.972 188.163 175.198 188.499 177.105C188.174 178.119 196.415 180.31 200.045 179.65C202.123 179.017 202.924 176.437 201.2 173.132Z" fill="#FDCBB4"/>
<path d="M191.035 156.816C191.035 156.816 191.466 162.465 190.017 167.285C189.209 169.972 187.994 175.35 188.329 177.258C188.404 177.536 188.766 177.64 189.057 177.872C188.779 175.539 189.077 171.012 190.017 169.75C190.509 169.09 190.834 167.286 191.464 167.687C192.997 168.663 196.377 169.667 200.374 170.41C200.692 168.439 203.804 161.166 203.804 161.166L191.035 156.816Z" fill="#F1A089"/>
<path d="M209.561 180.927C206.81 179.474 205.985 175.03 201.118 173.05C200.311 175.39 200.948 177.511 200.293 178.851C199.638 180.191 196.35 178.78 192.277 178.248C188.205 177.715 188.657 177.256 188.331 177.084C188.005 176.911 187.712 178.817 187.969 178.851C188.085 178.866 193.61 179.815 196.003 179.815C199.302 179.815 201.447 182.537 207.691 184.895C209.35 185.522 211.029 181.702 209.561 180.927Z" fill="#E05357"/>
<path d="M159.885 89.9805H164.433L146.154 184.968H144.935L159.885 89.9805Z" fill="#312E63"/>
<path d="M270.618 89.89H266.069L284.349 184.878H285.568L270.618 89.89Z" fill="#312E63"/>
<path d="M266.069 89.89H269.263L278.521 154.594L266.069 89.89Z" fill="#232056"/>
<path d="M164.433 89.9805H162.159L149.586 167.134L164.433 89.9805Z" fill="#232056"/>
<path d="M141.8 89.395C141.8 88.6659 142.391 88.075 143.12 88.075H287.495C288.224 88.075 288.815 88.6659 288.815 89.395V90.55C288.815 91.279 288.224 91.87 287.495 91.87H143.12C142.391 91.87 141.8 91.279 141.8 90.55V89.395Z" fill="#312E63"/>
<circle cx="213.988" cy="25.9524" r="11.9266" fill="#CDEBF7"/>
<circle cx="213.988" cy="25.9525" r="12.87" stroke="#1A9CDD" stroke-width="0.165"/>
<path d="M213.74 25.8243C213.74 25.961 213.851 26.0718 213.988 26.0718C214.124 26.0718 214.235 25.961 214.235 25.8243H213.74ZM214.235 19.9252C214.235 19.7885 214.124 19.6777 213.988 19.6777C213.851 19.6777 213.74 19.7885 213.74 19.9252H214.235ZM214.235 25.8243V19.9252H213.74V25.8243H214.235Z" fill="#1A9CDD"/>
<path d="M213.796 15.0519V16.719" stroke="#1A9CDD" stroke-width="0.33"/>
<path d="M203.087 25.7601L204.754 25.7601" stroke="#1A9CDD" stroke-width="0.33"/>
<path d="M213.796 34.8012V36.4684" stroke="#1A9CDD" stroke-width="0.33"/>
<path d="M222.836 25.7601L224.503 25.7601" stroke="#1A9CDD" stroke-width="0.33"/>
<path d="M221.554 26.0718C221.691 26.0718 221.801 25.961 221.801 25.8243C221.801 25.6876 221.691 25.5768 221.554 25.5768V26.0718ZM214.116 25.5768C213.979 25.5768 213.868 25.6876 213.868 25.8243C213.868 25.961 213.979 26.0718 214.116 26.0718V25.5768ZM221.554 25.5768H214.116V26.0718H221.554V25.5768Z" fill="#1A9CDD"/>
<circle cx="213.987" cy="25.9526" r="1.41067" fill="#1A9CDD"/>
<path d="M122 184.93H325.445" stroke="#232056" stroke-width="0.165"/>
<path d="M181.927 47.0726C179.798 51.2037 180.322 54.0344 180.987 56.4775C172.655 59.2 168.856 56.39 165.807 51.115L173.842 43.36C176.668 43.9153 177.936 43.4746 181.927 47.0726Z" fill="#FECBB5"/>
<path d="M173.842 43.3599C176.668 43.9151 177.936 43.4744 181.927 47.0724C180.798 49.2626 180.416 51.0872 180.404 52.6824C175.911 50.8344 174.157 45.6974 173.842 43.3599Z" fill="#E98E64"/>
<path d="M183.545 165.13C188.99 149.62 195.425 132.79 199.715 116.785C208.178 113.963 218.165 113.515 217.535 116.785C215.39 127.922 210.44 157.953 207.8 170.493C203.923 171.482 188.33 165.13 183.545 165.13Z" fill="#0B1F83"/>
<path d="M199.715 116.785C208.178 113.963 218.165 113.515 217.535 116.785C215.792 125.833 212.198 147.351 209.495 161.83C210.14 150.445 211.595 126.437 211.595 124.127C210.077 125.975 207.498 127.482 206.48 127.675L199.715 116.785Z" fill="#09125A"/>
<path d="M208.24 168.347C202.19 168.925 191.3 163.232 186.762 163.232C187.554 161.516 197.377 131.054 202.19 116.037" stroke="#4B4FE2" stroke-width="0.33"/>
<path d="M211.1 170.557C208.633 170.912 214.776 118.888 212.915 121.157C205.408 130.315 195.755 127.63 188.825 127.63C161.023 127.63 153.291 120.555 155.495 104.575C217.205 97.4797 223.067 100.133 225.62 102.595C230.24 107.05 230.24 114.145 235.85 170.557C232.468 172.142 217.288 169.667 211.1 170.557Z" fill="#0B1F83"/>
<path d="M212.915 121.157C212.528 121.63 212.136 122.069 211.739 122.477C213.754 120.057 217.931 114.013 218.525 109.195C217.997 113.815 214.753 122.065 213.197 125.612C213.341 122.48 213.294 120.696 212.915 121.157Z" fill="#031677"/>
<path d="M155.495 104.575C155.495 128.417 170.592 121.9 187.752 125.695C204.912 129.49 212.915 117.28 214.152 119.26C216.462 125.695 212.915 165.625 212.915 168.1C216.215 167.193 230.735 169.915 235.647 168.513" stroke="#4B4FE2" stroke-width="0.33"/>
<path d="M215.961 60.0249H253.8C254.027 60.0249 254.186 60.2483 254.112 60.4626L244.995 86.8626C244.949 86.9957 244.824 87.0849 244.683 87.0849H206.845C206.618 87.0849 206.459 86.8615 206.533 86.6472L215.65 60.2472C215.695 60.1142 215.821 60.0249 215.961 60.0249Z" fill="white" stroke="#FF7301" stroke-width="0.33"/>
<path d="M253.801 59.8599H216.091C215.88 59.8599 215.692 59.994 215.623 60.1938L215.39 60.871H252.244C252.584 60.871 252.823 61.2055 252.712 61.5269L244.094 86.594C243.984 86.9154 244.222 87.2499 244.562 87.2499H244.714C244.926 87.2499 245.114 87.1158 245.182 86.916L254.269 60.516C254.38 60.1946 254.141 59.8599 253.801 59.8599Z" fill="#FF7301"/>
<path d="M206.68 85.765H245.42L244.779 88.075H205.82L206.68 85.765Z" fill="#FF7301"/>
<path d="M207.175 86.59H243.275L242.634 87.91H206.645L207.175 86.59Z" fill="#FF8420"/>
<path d="M213.557 73.5228C213.466 73.5228 213.392 73.5967 213.392 73.6878C213.392 73.7789 213.466 73.8528 213.557 73.8528V73.5228ZM225.561 73.8528C225.652 73.8528 225.726 73.7789 225.726 73.6878C225.726 73.5967 225.652 73.5228 225.561 73.5228V73.8528ZM213.557 73.8528H225.561V73.5228H213.557V73.8528Z" fill="#CDEBF7"/>
<path d="M213.007 74.989C212.916 74.989 212.842 75.0629 212.842 75.154C212.842 75.2451 212.916 75.319 213.007 75.319V74.989ZM224.37 75.319C224.461 75.319 224.535 75.2451 224.535 75.154C224.535 75.0629 224.461 74.989 224.37 74.989V75.319ZM213.007 75.319H224.37V74.989H213.007V75.319Z" fill="#CDEBF7"/>
<path d="M212.457 76.6384C212.366 76.6384 212.292 76.7123 212.292 76.8034C212.292 76.8945 212.366 76.9684 212.457 76.9684V76.6384ZM223.087 76.9684C223.178 76.9684 223.252 76.8945 223.252 76.8034C223.252 76.7123 223.178 76.6384 223.087 76.6384V76.9684ZM212.457 76.9684H223.087V76.6384H212.457V76.9684Z" fill="#CDEBF7"/>
<path d="M211.907 78.1045C211.816 78.1045 211.742 78.1784 211.742 78.2695C211.742 78.3607 211.816 78.4345 211.907 78.4345V78.1045ZM221.987 78.4345C222.079 78.4345 222.152 78.3607 222.152 78.2695C222.152 78.1784 222.079 78.1045 221.987 78.1045V78.4345ZM211.907 78.4345H221.987V78.1045H211.907V78.4345Z" fill="#CDEBF7"/>
<path d="M217.427 63.8265C217.474 63.6954 217.598 63.6078 217.737 63.6078H226.454C226.686 63.6078 226.846 63.8407 226.762 64.0569L224.536 69.8115C224.487 69.9386 224.364 70.0224 224.228 70.0224H215.675C215.447 70.0224 215.288 69.7961 215.365 69.5811L217.427 63.8265Z" fill="#CDEBF7"/>
<path d="M232.626 63.8425C232.681 63.7011 232.817 63.6078 232.968 63.6078H248.628C248.917 63.6078 249.093 63.9269 248.938 64.1709V64.1709C248.87 64.2768 248.754 64.3409 248.628 64.3409H232.968C232.711 64.3409 232.534 64.0826 232.626 63.8425V63.8425Z" fill="#CDEBF7"/>
<path d="M231.527 65.6752C231.581 65.5338 231.717 65.4405 231.869 65.4405H247.528C247.818 65.4405 247.993 65.7596 247.838 66.0036V66.0036C247.771 66.1095 247.654 66.1736 247.528 66.1736H231.869C231.611 66.1736 231.434 65.9153 231.527 65.6752V65.6752Z" fill="#CDEBF7"/>
<path d="M230.427 67.5079C230.482 67.3665 230.618 67.2732 230.769 67.2732H246.429C246.718 67.2732 246.893 67.5923 246.738 67.8363V67.8363C246.671 67.9422 246.554 68.0063 246.429 68.0063H230.769C230.512 68.0063 230.335 67.748 230.427 67.5079V67.5079Z" fill="#CDEBF7"/>
<path d="M229.327 69.3407C229.382 69.1993 229.518 69.106 229.669 69.106H245.329C245.618 69.106 245.794 69.4251 245.638 69.6691V69.6691C245.571 69.775 245.455 69.8391 245.329 69.8391H229.669C229.412 69.8391 229.235 69.5809 229.327 69.3407V69.3407Z" fill="#CDEBF7"/>
<path d="M232.781 76.4662C232.83 76.3383 232.952 76.2537 233.089 76.2537H241.669C241.9 76.2537 242.06 76.4852 241.977 76.7012L239.785 82.4558C239.736 82.5837 239.614 82.6683 239.477 82.6683H230.897C230.666 82.6683 230.507 82.4368 230.589 82.2208L232.781 76.4662Z" fill="#CDEBF7"/>
<path d="M231.563 74.6867H244.786C244.959 74.6867 245.079 74.8597 245.018 75.0216L241.601 84.0751C241.565 84.1715 241.473 84.2352 241.37 84.2352H228.146C227.973 84.2352 227.854 84.0622 227.915 83.9004L231.331 74.8469C231.368 74.7505 231.46 74.6867 231.563 74.6867Z" stroke="#CDEBF7" stroke-width="0.165"/>
<path d="M189.733 60.1899C188.273 58.3318 182.399 56.2317 180.74 55.8999C173.939 58.2226 168.366 54.0849 165.973 51.0324C164.488 51.7749 155.943 58.5399 154.67 69.2649C153.508 79.0534 152.987 90.6161 154.67 108.7L195.59 100.202C193.71 84.0542 191.192 62.0481 189.733 60.1899Z" fill="#F6BC33"/>
<path d="M180.74 55.8999C173.939 58.2226 168.366 54.0849 165.973 51.0324" stroke="white" stroke-width="0.33"/>
<path d="M177.523 65.3048C181.417 57.7148 186.544 58.4301 188.621 59.7365C189.958 61.4379 193.113 80.4097 195.079 95.9949C193.765 96.1599 189.931 96.3909 185.113 95.9949C179.09 95.4999 177.523 81.8874 177.523 79.6598C177.523 77.4323 175.872 68.5225 177.523 65.3048Z" fill="#DB9D10"/>
<path d="M217.117 81.8976C214.73 82.7676 213.846 82.7676 211.761 82.7676L213.59 88.1289C213.989 87.8077 215.15 87.2434 216.606 87.5564C221.743 88.661 221.908 87.2709 223.463 87.2644C224.713 87.2592 225.33 86.1549 226.666 86.0302C227.735 85.9304 228.64 86.8157 228.959 87.2709C229.168 87.5693 229.745 88.2164 230.789 87.3286C229.22 84.2748 227.883 84.3995 227.052 84.3733C225.456 82.1531 224.91 83.6381 223.772 82.7676C221.334 80.8547 219.937 80.87 217.117 81.8976Z" fill="#FBCBB8"/>
<path d="M226.666 86.03C227.735 85.9302 228.64 86.8156 228.958 87.2707C228.419 86.2191 226.666 85.3523 225.372 86.1773C223.31 87.4973 223.772 86.5073 223.145 86.8373C219.238 88.4873 216.605 86.9198 216.297 86.8373C216.051 86.7713 214.985 84.0086 214.482 82.6354C213.643 82.7674 212.873 82.7674 211.76 82.7674L213.59 88.1287C213.988 87.8075 215.15 87.2433 216.605 87.5562C221.743 88.6608 221.908 87.2707 223.463 87.2642C224.713 87.2591 225.33 86.1548 226.666 86.03Z" fill="#E98E64"/>
<path d="M178.011 76.2656C175.488 63.94 181.978 58.7049 185.478 58.7049C197.57 58.7049 192.221 82.601 195.275 81.9384C198.328 81.2757 205.738 81.9384 212.73 81.2624L216.215 88.0547C207.31 92.3621 192.288 97.1798 186.314 95.1918C178.847 92.7068 180.052 86.2397 178.011 76.2656Z" fill="#F6BC33"/>
<path d="M216.215 88.0548L212.73 81.2625" stroke="white" stroke-width="0.33"/>
<path d="M182.14 50.2471C172.062 49.1825 171.036 38.3275 171.944 33.2126C174.124 27.0425 188.318 32.8148 188.439 33.9036L188.44 33.9085C188.566 35.0401 190.365 51.2136 182.14 50.2471Z" fill="#FECBB5"/>
<path d="M171.944 33.2126C174.124 27.0425 188.318 32.8148 188.439 33.9036L188.44 33.9085C188.483 34.2959 188.722 36.4471 188.688 39.07C183.297 38.245 182.06 35.605 181.482 37.6675C180.327 41.7925 177.522 42.205 177.77 41.1325C178.402 38.245 177.852 36.5125 175.955 38.245C174.057 39.9775 177.605 44.185 177.522 45.01C177.456 45.67 176.032 46.66 175.329 47.0725C171.621 43.1945 171.308 36.7954 171.944 33.2126Z" fill="#E98E64"/>
<path d="M193.027 34.6004C194.045 27.8395 188.836 26.6297 185.862 26.9282C184.842 24.7792 181.341 22.5803 179.168 22.9221C174.034 23.73 172.625 27.6847 172.182 29.4251C165.631 33.3132 168.875 37.3189 170.394 39.0148C171.028 39.7228 168.27 45.2039 169.211 47.2741C169.854 48.69 176.294 47.2741 177.143 44.7723C177.466 43.8218 176.095 43.2933 175.145 40.592C174.194 37.8908 176.772 36.5882 177.966 37.356C179.16 38.1238 177.291 41.8166 178.466 41.4035C181.63 39.8944 180.82 35.4962 182.418 36.4256C187.894 39.612 192.356 39.0597 193.027 34.6004Z" fill="#05185A"/>
<path d="M188.082 38.4305C190.744 38.624 192.612 37.3607 193.027 34.6006C193.431 31.9182 192.855 30.1096 191.827 28.9223C194.435 34.6006 189.98 36.6772 188.082 38.4305Z" fill="#312E63"/>
<rect width="5.28" height="48.18" transform="matrix(-1 0 0 1 182.364 127.992)" fill="#312E63"/>
<path d="M182.364 176.172H177.084L182.364 127.992V176.172Z" fill="#232056"/>
<path d="M182.296 176.172H177.114C175.674 177.63 171.932 178.796 167.613 179.379C163.007 180.001 159.264 179.962 159.264 184.917H201.009C201.009 179.962 198.706 179.962 192.084 179.379C186.787 178.912 183.351 177.047 182.296 176.172Z" fill="#232056"/>
<path d="M203.733 127.99V123.964C199.527 117.344 200.187 108.269 193.092 100.514C186.631 93.4522 196.145 95.569 176.02 95.569C175.065 87.0365 173.621 69.001 166.17 66.1808C154.151 61.6319 142.338 67.273 144.125 81.9723C149.859 129.141 153.185 127.99 161.528 127.99H203.733Z" fill="#12AAE4"/>
<path d="M161.528 127.99H203.733V127.238H155.66C157.342 128.076 159.247 127.99 161.528 127.99Z" fill="#0F8DC2"/>
<path d="M186.668 128.067C181.536 128.067 181.19 129.092 175.107 89.6242C176.663 90.395 176.431 92.1678 182.856 93.0927C194.87 94.8224 196.797 100.864 201.929 116.952L201.97 117.083C202.981 120.253 203.757 122.89 208.107 125.411L206.397 128.067H186.668Z" fill="#24BCEB"/>
<path d="M186.668 128.067H206.398L208.107 125.411H181.9C183.163 128.253 184.481 128.067 186.668 128.067Z" fill="#12AAE4"/>
<path d="M186.762 128.088C191.122 128.088 175.093 128.067 206.397 128.067L206.892 127.263H182.967C183.951 128.296 185.175 128.088 186.762 128.088Z" fill="#0F8DC2"/>
<path d="M265.379 72.1159C264.848 74.5409 265.601 79.4336 266.044 81.5768H267.15C267.925 78.5457 266.929 74.596 266.929 72.8507C266.929 71.4546 266.191 69.2072 265.822 68.2581C265.896 68.5336 265.911 69.691 265.379 72.1159Z" fill="#1889D1"/>
<path d="M266.155 81.4848C265.011 79.9233 262.878 75.9001 263.498 72.2995C263.996 69.408 264.098 68.179 264.081 67.7753C264.071 67.7191 264.061 67.6656 264.051 67.6149C264.066 67.627 264.077 67.6763 264.081 67.7753C264.31 69.0107 264.715 71.5368 264.715 72.9424C264.715 74.7795 266.708 77.9025 267.262 81.4848H266.155Z" fill="#1AA0D5"/>
<path d="M262.944 76.6167C264.538 78.0129 265.527 80.444 265.822 81.485H266.819C267.04 80.1072 265.601 76.9841 264.051 75.8819C262.811 75.0001 261.468 72.6976 260.951 71.6566C260.951 72.7282 261.35 75.2205 262.944 76.6167Z" fill="#1889D1"/>
<path d="M262.833 78.5458C263.896 79.3541 264.604 80.8422 264.826 81.4851H265.822C265.711 80.4747 264.494 78.0865 263.387 77.5354C262.501 77.0945 261.542 75.8208 261.172 75.2391C261.283 76.0045 261.77 77.7375 262.833 78.5458Z" fill="#1AA0D5"/>
<path d="M266.487 75.0555C265.247 76.8191 265.749 80.0156 266.155 81.3935H267.04C267.04 80.4749 267.261 78.0683 268.147 75.7904C269.254 72.9429 269.143 70.4629 268.922 68.4421C269.033 69.3606 268.037 72.8511 266.487 75.0555Z" fill="#1AA0D5"/>
<path d="M267.926 76.8919C266.686 78.2146 266.597 80.2599 266.708 81.1172H267.15C267.372 80.1987 268.811 78.1779 269.807 76.7082C270.804 75.2386 270.693 72.3911 270.693 70.554C270.693 72.0237 269.475 75.2386 267.926 76.8919Z" fill="#1889D1"/>
<path d="M270.472 77.627C269.32 78.5088 268.221 80.3826 267.815 81.2092H266.819C266.708 80.9337 268.479 77.8107 269.586 76.8921C270.693 75.9736 271.8 73.5854 272.243 72.2994C272.465 73.3098 272.151 76.341 270.472 77.627Z" fill="#1AA0D5"/>
<path d="M271.464 80.3668H260.765L262.853 88.0754H269.593L271.464 80.3668Z" fill="#F4BD34"/>
<path d="M262.051 81.7337L261.842 80.3596H270.481L270.29 81.7337M262.051 81.7337H270.29M262.051 81.7337L262.26 83.1079M270.29 81.7337L270.099 83.1079M262.26 83.1079H270.099M262.26 83.1079L262.47 84.482M270.099 83.1079L269.908 84.482M262.47 84.482H269.908M262.47 84.482L262.634 85.5617M269.908 84.482L269.758 85.5617M262.634 85.5617H269.758M262.634 85.5617L262.828 86.8376M269.758 85.5617L269.58 86.8376M262.828 86.8376L263.023 87.9486H269.403L269.58 86.8376M262.828 86.8376H269.58" stroke="#FFDD79" stroke-width="0.165"/>
<path d="M289.729 126.676C286.813 127.349 280.352 126.541 277.839 117.927C282.999 118.375 290.851 118.6 289.729 126.676Z" fill="#102D93"/>
<path d="M294.889 153.372C294.44 143.052 295.607 126.227 283.223 121.74" stroke="#0B1F83" stroke-width="0.165"/>
<path d="M294.618 122.462C293.453 118.165 290.165 113.314 285.915 127.124C289.953 127.797 308.48 125.652 294.618 122.462Z" fill="#183C9F"/>
<path d="M288.239 117.406C285.417 119.2 278.281 119.695 272.315 107.32C278.386 107.145 291.536 107.819 288.239 117.406Z" fill="#183C9F"/>
<path d="M296.011 114.113C293.917 116.207 288.832 115.728 285.242 97.0632C293.543 99.7552 304.984 106.485 296.011 114.113Z" fill="#183C9F"/>
<path d="M301.394 118.824C297.805 116.431 294.036 110.075 307.675 103.793C308.574 109.402 309.918 122.638 301.394 118.824Z" fill="#102D93"/>
<path d="M301.843 111.421C299.076 106.635 298.971 96.2555 320.687 93.025C317.098 97.0631 303.637 114.337 301.843 111.421Z" fill="#183C9F"/>
<path d="M307.676 117.254C304.984 114.636 304.132 108.774 322.258 106.261C319.342 110.523 312.163 120.843 307.676 117.254Z" fill="#183C9F"/>
<path d="M304.76 130.265C305.881 126.377 310.637 119.99 320.688 126.451C317.098 127.124 314.406 126.676 304.76 130.265Z" fill="#183C9F"/>
<path d="M296.235 152.923C296.459 142.903 296.459 122.817 294.664 122.638C293.049 123.356 291.599 124.283 291.075 124.657" stroke="#0B1F83" stroke-width="0.165"/>
<path d="M298.031 152.699C297.059 140.51 295.563 108.28 309.473 101.326" stroke="#0B1F83" stroke-width="0.165"/>
<path d="M312.612 111.645C303.459 114.876 302.517 140.51 303.19 152.923H303.862C303.256 138.117 304.087 115.683 312.612 111.645Z" fill="#0B1F83"/>
<path d="M308.126 126.9C301.619 130.041 300.424 146.118 300.499 152.923H300.947C301.396 132.957 304.76 129.368 308.126 126.9Z" fill="#0B1F83"/>
<path d="M278.512 109.626C292.87 115.01 292.421 133.855 292.421 152.923H293.767C293.319 136.771 294.44 115.01 278.512 109.626Z" fill="#0B1F83"/>
<path d="M297.581 152.475C297.581 138.252 298.465 109.766 291.261 103.705C290.849 103.374 290.414 103.103 289.953 102.896C290.416 103.089 290.852 103.361 291.261 103.705C298.883 109.825 298.501 136.299 298.927 152.475H297.581Z" fill="#0B1F83"/>
<path d="M303.188 111.869C298.478 116.581 300.197 142.604 300.047 153.372H300.945C301.02 144.099 299.375 115.683 303.188 111.869Z" fill="#0B1F83"/>
<path d="M310.592 151.129H286.139L291.299 185.004H305.881L310.592 151.129Z" fill="#FE8100"/>
<path d="M286.515 153.596L286.139 151.129H310.592L310.249 153.596M286.515 153.596H310.249M286.515 153.596L286.891 156.064M310.249 153.596L309.906 156.064M286.891 156.064H309.906M286.891 156.064L287.335 158.98M309.906 156.064L309.5 158.98M287.335 158.98H309.5M287.335 158.98L287.745 161.672M309.5 158.98L309.126 161.672M287.745 161.672H309.126M287.745 161.672L288.155 164.364M309.126 161.672L308.751 164.364M288.155 164.364H308.751M288.155 164.364L288.6 167.281M308.751 164.364L308.346 167.281M288.6 167.281H308.346M288.6 167.281L289.078 170.422M308.346 167.281L307.909 170.422M289.078 170.422H307.909M289.078 170.422L289.556 173.562M307.909 170.422L307.472 173.562M289.556 173.562H307.472M289.556 173.562L290.035 176.703M307.472 173.562L307.035 176.703M290.035 176.703H307.035M290.035 176.703L290.411 179.171M307.035 176.703L306.692 179.171M290.411 179.171H306.692M290.411 179.171L290.855 182.087M306.692 179.171L306.287 182.087M290.855 182.087L291.299 185.004H305.881L306.287 182.087M290.855 182.087H306.287" stroke="#FFDD79" stroke-width="0.165"/>
<rect x="275.096" y="26.9731" width="40.2826" height="30.9106" fill="#FDF2D6" stroke="#1A9CDD" stroke-width="0.165"/>
<rect x="273.552" y="25.7875" width="43.3688" height="33.2817" stroke="#3E4D9B" stroke-width="0.165"/>
<path d="M315.461 26.8906H310.705L275.013 57.9662L315.461 26.8906Z" fill="white"/>
<path d="M275.013 40.7487L291.912 26.8906H301.466L275.013 50.6173V40.7487Z" fill="white"/>
</svg>
